<?xml version="1.0" standalone="no"?>
<!DOCTYPE svg PUBLIC "-//W3C//DTD SVG 1.1//EN" "http://www.w3.org/Graphics/SVG/1.1/DTD/svg11.dtd" >
<svg xmlns="http://www.w3.org/2000/svg">
<metadata></metadata>
<defs>
<font id="champagne__limousinesitalic" horiz-adv-x="1070" >
<font-face units-per-em="2048" ascent="1638" descent="-410" />
<missing-glyph horiz-adv-x="508" />
<glyph unicode="&#xd;" horiz-adv-x="508" />
<glyph unicode=" "  horiz-adv-x="508" />
<glyph unicode="&#x09;" horiz-adv-x="508" />
<glyph unicode="&#xa0;" horiz-adv-x="508" />
<glyph unicode="!" horiz-adv-x="269" d="M212.5 123q19.5 -23 13.5 -56t-33.5 -56t-59.5 -23q-33 0 -52.5 23t-13.5 56t33.5 56t60.5 23q32 0 51.5 -23zM422 1414l-206 -1170h-80l206 1170h80z" />
<glyph unicode="&#x22;" horiz-adv-x="397" d="M210 881l93 530h80l-93 -530h-80zM418 881l93 530h79l-93 -530h-79z" />
<glyph unicode="#" d="M397 542l82 270h-285l24 80h285l138 461h80l-138 -461h270l138 461h80l-138 -461h285l-24 -80h-285l-82 -270h286l-24 -80h-286l-138 -462h-80l138 462h-270l-138 -462h-80l138 462h-284l24 80h284zM559 812l-82 -270h270l82 270h-270z" />
<glyph unicode="$" d="M712 756l-104 -589q91 13 170 80q97 83 118 202q21 117 -48 200q-53 66 -136 107zM719 1249q-55 -9 -104 -51q-63 -53 -77 -129q-13 -76 31 -129q30 -37 83 -70zM638 787q-84 40 -133 99q-63 75 -44 183q19 105 108 181q76 65 164 75l25 144h80l-26 -146q76 -14 125 -72 q34 -40 42 -95l-74 -28q-8 41 -33 71q-29 35 -73 47l-73 -410q113 -47 185 -134q87 -105 61 -253q-26 -150 -151 -255q-105 -90 -226 -104l-22 -124h-80l22 123q-126 10 -203 105q-69 84 -67 199l77 27q-7 -102 54 -173q58 -72 152 -82z" />
<glyph unicode="%" d="M1177 1161l-1015 -1158l-57 45l1015 1158zM593 1014q49 -60 34 -145q-15 -84 -85 -144t-155 -60t-134 60t-34 144q15 85 85 145t155 60t134 -60zM445 997q-53 0 -96.5 -37.5t-52.5 -90.5q-10 -53 20.5 -90t83.5 -37q52 0 96 37t54 90q9 53 -22 90.5t-83 37.5zM1029 483.5 q49 -59.5 34 -144.5t-85 -144.5t-155 -59.5t-134 59.5t-34 144.5t85 144.5t155 59.5t134 -59.5zM882 467q-53 0 -96.5 -37.5t-53.5 -90.5q-9 -53 21.5 -90t83.5 -37q52 0 96.5 37t53.5 90q10 53 -21.5 90.5t-83.5 37.5z" />
<glyph unicode="&#x26;" horiz-adv-x="1167" d="M866 292q-10 5 -20 11q-38 24 -90 90q-35 39 -51 49q-18 10 -38 10q-11 0 -22 -2q-34 -9 -55 -37q-14 -20 -17 -39q-2 -11 -1 -22q3 -32 27 -46q15 -9 44 -9q16 0 37 3l-21 -73q-23 -6 -45 -6q-35 0 -66 18q-48 30 -54 92q-2 22 2 43q6 39 34 76q43 56 108 73q23 6 44 6 q39 0 71 -21q32 -19 78 -79q43 -46 65 -60q24 -15 52 -15q16 0 33 5q48 12 79 54q20 27 25 55q3 15 1 31q-4 45 -41 69q-23 14 -54 14q-22 0 -48 -7l13 79q26 7 50 7q47 0 88 -26q62 -39 69 -115q3 -27 -2 -52q-8 -48 -41 -92q-51 -69 -133 -91q-24 -6 -45 -7 q-46 -95 -136 -171q-144 -124 -317 -124t-274.5 123t-70.5 297q30 173 174 302q99 89 240 134q-60 27 -114 98t-32 196q22 122 125 210t227 88t196 -88q41 -47 49 -105l-76 -28q-8 43 -38 79q-54 64 -145 64t-166.5 -64t-92.5 -156q-16 -91 35 -157.5t100.5 -86.5t128.5 -21 l-14 -75l-63 -1q-200 -37 -316 -143t-140 -246q-25 -141 57 -241t224 -100q140 0 257 100q68 58 106 130z" />
<glyph unicode="'" horiz-adv-x="190" d="M210 881l93 530h80l-93 -530h-80z" />
<glyph unicode="(" horiz-adv-x="552" d="M758 1483q-91 -50 -219 -188q-186 -204 -249 -561q-4 -22 -7 -45q-5 -23 -9 -45q-63 -358 51 -562q79 -138 153 -188h-89q-66 53 -119 130q-168 243 -94 665q75 421 328 664q80 77 165 130h89z" />
<glyph unicode=")" horiz-adv-x="552" d="M405 1483q67 -53 119 -130q168 -243 94 -664q-74 -422 -328 -665q-80 -77 -165 -130h-89q92 50 219 188q186 204 249 562q4 22 7 45q5 23 9 45q63 357 -51 561q-79 138 -153 188h89z" />
<glyph unicode="*" horiz-adv-x="630" d="M571 1223l173 108l34 -66l-192 -119l150 -119l-58 -66l-135 108l-33 -188h-79l34 189l-175 -109l-34 66l192 119l-150 119l58 66l135 -109l34 189h79z" />
<glyph unicode="+" d="M495 483h-410v80h410v410h80v-410h410v-80h-410v-410h-80v410z" />
<glyph unicode="," horiz-adv-x="336" d="M264 147l-224 -341h-74l151 341h147z" />
<glyph unicode="-" horiz-adv-x="596" d="M147 563h500l-14 -80h-500z" />
<glyph unicode="." horiz-adv-x="269" d="M212.5 123q19.5 -23 13.5 -56t-33.5 -56t-59.5 -23q-33 0 -52.5 23t-13.5 56t33.5 56t60.5 23q32 0 51.5 -23z" />
<glyph unicode="/" horiz-adv-x="627" d="M837 1414h91l-890 -1414h-90z" />
<glyph unicode="0" d="M1058 695q53 300 -35 467t-254 167t-313 -167t-200 -467q-53 -301 35 -468t254 -167t313 167t200 468zM1142 695q-59 -335 -234.5 -527.5t-376.5 -192.5t-309.5 192.5t-49.5 527.5q59 334 235.5 526.5t377.5 192.5t308.5 -192.5t48.5 -526.5z" />
<glyph unicode="1" d="M513 80l207 1176l-163 -96l-55 45l325 209l-235 -1334h307l-14 -80h-700l14 80h314z" />
<glyph unicode="2" d="M170 0q704 847 760.5 922.5t68.5 144.5q6 34 4 69q-5 110 -89 169q-60 40 -132 40q-32 0 -65 -7q-112 -25 -188 -119q-42 -52 -58 -103l-80 12q18 67 73 134q102 125 248 157q45 10 86 10q98 0 175 -55q111 -78 118 -219q2 -52 -6 -99q-14 -83 -77 -168.5t-666 -807.5 h571l-14 -80h-729z" />
<glyph unicode="3" d="M624 789l-65 2l13 79q83 1 139 21.5t129 86t89 155.5q16 91 -36.5 154t-142.5 63q-89 0 -165 -63q-41 -36 -66 -81l-71 30q30 62 87 109q105 88 230 88q126 0 198 -88.5t51 -211.5q-22 -126 -102 -198t-143 -96q121 -42 189 -132q98 -130 67 -304q-31 -175 -176 -298.5 t-320 -123.5q-174 0 -276 124q-81 99 -78 232l86 29q-8 -118 62 -203q81 -98 220 -98q141 0 257.5 98.5t141.5 239.5q25 140 -53 245t-265 141z" />
<glyph unicode="4" d="M1059 1474l-182 -1031h135l-14 -79h-135l-64 -364h-80l64 364h-583zM929 1192l-578 -749h446z" />
<glyph unicode="5" d="M403 975q47 14 104 26q57 10 110 10q98 0 182 -31q187 -68 253 -251q41 -114 20 -233q-14 -75 -50 -150q-96 -198 -296 -297q-123 -59 -241 -59q-75 0 -148 24q-151 49 -219 172l68 62q55 -111 190 -154q60 -20 121 -20q99 0 202 50q167 81 248 247q31 64 42 126 q17 99 -17 193q-54 152 -210 210q-68 25 -153 25q-113 0 -257 -43l-54 55l241 448l6 29h442l-15 -80h-375z" />
<glyph unicode="6" d="M292 373q-23 -128 51.5 -217.5t202.5 -89.5q127 0 233.5 89.5t129.5 217.5q22 128 -52.5 218.5t-201.5 90.5q-128 0 -234.5 -90.5t-128.5 -218.5zM418 687q117 80 252 80q163 0 257 -115t66 -279q-29 -162 -164 -277.5t-298 -115.5q-162 0 -257 115.5t-66 277.5l2 16 q47 212 212 460t365 481q37 43 69 84h106q-38 -50 -83 -101q-228 -260 -386 -503q-42 -64 -75 -123z" />
<glyph unicode="7" d="M927 924q-228 -260 -387 -503.5t-199 -420.5h-83q46 212 211.5 460t365 481t261.5 393h-743l14 80h833q-45 -230 -273 -490z" />
<glyph unicode="8" d="M545 66h2q17 -1 35 -1q140 0 256.5 98.5t141.5 239.5q25 140 -53 245q-76 102 -253 139q-192 -37 -304 -139q-114 -105 -139 -245q-25 -141 56.5 -239.5t221.5 -98.5q18 0 36 1zM532 -18q-19 -1 -38 -1q-174 0 -275.5 123.5t-70.5 298.5q31 174 174 304q100 90 235 132 q-54 24 -108.5 96t-31.5 198q21 123 124 211.5t230 88.5h32q126 0 198.5 -88.5t51.5 -211.5q-23 -126 -103 -198t-142 -96q119 -42 187 -132q99 -130 68 -304q-31 -175 -176 -298.5t-320 -123.5q-18 0 -35 1zM772 1349q-7 1 -15 1q-90 0 -165 -63t-91 -154 q-16 -90 34 -155.5t98 -85.5q25 -10 56 -15q33 5 61 15q56 20 129 85.5t89 155.5q16 91 -36.5 154t-142.5 63q-8 0 -15 -1h-2z" />
<glyph unicode="9" d="M1027 1041q22 128 -52.5 217.5t-202.5 89.5q-127 0 -233.5 -89.5t-128.5 -217.5q-23 -128 51.5 -218.5t201.5 -90.5q128 0 234.5 90.5t129.5 218.5zM901 727q-118 -80 -253 -80q-163 0 -257 115t-65 279q28 162 163 277.5t298 115.5q162 0 257 -115.5t67 -277.5l-3 -16 q-46 -212 -211.5 -460t-365.5 -481q-36 -43 -69 -84h-106q38 50 83 101q228 260 387 504q41 63 75 122z" />
<glyph unicode=":" horiz-adv-x="269" d="M212.5 123q19.5 -23 13.5 -56t-33.5 -56t-59.5 -23q-33 0 -52.5 23t-13.5 56t33.5 56t60.5 23q32 0 51.5 -23zM321 740q19 -23 14 -56q-6 -33 -33.5 -56t-59.5 -23q-33 0 -52.5 23t-13.5 56q5 33 33 56t61 23q32 0 51 -23z" />
<glyph unicode=";" horiz-adv-x="293" d="M264 147l-224 -341h-74l151 341h147zM298.5 740q19.5 -23 13.5 -56t-33.5 -56t-59.5 -23q-33 0 -52.5 23t-13.5 56t33.5 56t60.5 23q32 0 51.5 -23z" />
<glyph unicode="&#x3c;" d="M258 622l723 -334v-92l-892 426l892 426v-92z" />
<glyph unicode="=" d="M85 705h900v-80h-900v80zM89 422h892v-80h-892v80z" />
<glyph unicode="&#x3e;" d="M89 956v92l892 -426l-892 -426v92l723 334z" />
<glyph unicode="?" horiz-adv-x="795" d="M365 246q-32 44 -32 126q0 27 5 54q15 85 80 159q55 63 201 166q129 101 171 150q64 71 79 154q4 24 4 49q0 113 -82 179q-65 50 -147 50q-24 0 -50 -4q-114 -20 -195 -113q-66 -75 -80 -151q-3 -19 -3 -39l-84 6q0 20 4 41q16 90 102 189q104 121 256 147q35 6 68 6 q106 0 188 -64q105 -85 105 -233q0 -33 -6 -65q-18 -105 -99 -200q-70 -78 -233 -192q-107 -83 -141 -123q-46 -53 -57 -115q-3 -18 -3 -37q0 -48 16 -75zM442.5 123q19.5 -23 13.5 -56t-33.5 -56t-59.5 -23q-33 0 -52.5 23t-13.5 56t33.5 56t60.5 23q32 0 51.5 -23z" />
<glyph unicode="@" horiz-adv-x="1326" d="M988 467l21 116q-4 67 -45 117q-60 73 -162 73q-103 0 -187.5 -72.5t-103.5 -176.5q-18 -101 41.5 -173.5t162.5 -72.5q102 0 188 72q59 51 85 117zM960 317q-127 -113 -260 -113t-211 94.5t-55 225.5q24 134 135 228.5t244 94.5t220 -112l18 100h72l-101 -572 q10 -38 42 -38q39 0 125 97.5t104 200.5q39 222 -90.5 380t-351.5 158t-407 -158t-224 -380q-39 -221 90.5 -378t351.5 -157q152 0 229 43l41 -53q-117 -62 -283 -62q-251 0 -398.5 178.5t-103.5 428.5q44 251 254.5 430t461.5 179q252 0 398 -179t102 -430 q-20 -112 -124.5 -240t-203.5 -128q-11 0 -21 2q-74 16 -67 88z" />
<glyph unicode="A" horiz-adv-x="1116" d="M898 701l-111 593l-320 -593h431zM849 1414l264 -1414h-84l-116 622h-489l-340 -622h-85l768 1414h82z" />
<glyph unicode="B" horiz-adv-x="1033" d="M533 80q157 0 287.5 111.5t158.5 269.5t-63 270t-248 112h-327l-135 -763h327zM427 1335l-72 -412h360q88 9 139 52q72 61 87 149q16 87 -35 149t-138 62h-341zM859 887q73 -33 126 -99q111 -135 77 -327q-33 -191 -192 -326q-133 -113 -299 -135h-459l249 1414h422 q121 0 190.5 -85t48.5 -205t-121 -205q-21 -19 -42 -32z" />
<glyph unicode="C" horiz-adv-x="1347" d="M1264 225l52 -54q-241 -188 -521 -188q-301 0 -475 211.5t-121 512.5q53 299 302 511.5t550 212.5q280 0 453 -189l-70 -54q-154 161 -398 161q-266 0 -487.5 -188t-268.5 -454q-47 -267 108.5 -455t421.5 -188q244 0 454 161z" />
<glyph unicode="D" horiz-adv-x="1189" d="M623 1414q349 -2 507 -195q174 -213 122 -512q-53 -301 -303 -513q-226 -192 -575 -194h-262l249 1414h262zM427 1331l-221 -1249h181q305 0 511 170q222 188 269 455q47 266 -108 455q-146 169 -451 169h-181z" />
<glyph unicode="E" horiz-adv-x="931" d="M1068 1414l-14 -80h-627l-103 -587h627l-14 -80h-627l-104 -587h627l-14 -80h-707l249 1414h707z" />
<glyph unicode="F" horiz-adv-x="783" d="M980 1414l-14 -80h-539l-103 -587h539l-14 -80h-539l-118 -667h-80l249 1414h619z" />
<glyph unicode="G" horiz-adv-x="1359" d="M1310 176q-235 -193 -515 -193q-301 0 -475 211.5t-121 512.5q53 299 302 511.5t550 212.5q280 0 453 -189l-70 -54q-154 161 -398 161q-266 0 -487.5 -188t-268.5 -454q-47 -267 108.5 -455t421.5 -188q228 0 426 140l76 431h79z" />
<glyph unicode="H" horiz-adv-x="1072" d="M292 667l-118 -667h-80l249 1414h80l-117 -667h724l117 667h80l-249 -1414h-80l118 667h-724z" />
<glyph unicode="I" horiz-adv-x="324" d="M451 1414l-249 -1414h-80l249 1414h80z" />
<glyph unicode="J" horiz-adv-x="306" d="M187 -27q-19 -108 -105 -181.5t-193 -73.5l14 80q73 0 133 50q58 49 73 135l252 1431h80z" />
<glyph unicode="K" horiz-adv-x="999" d="M1011 1414l-460 -531l462 -883h-97l-428 817l-190 -218l-106 -599h-80l249 1414h80l-119 -677l592 677h97z" />
<glyph unicode="L" horiz-adv-x="783" d="M112 0l249 1414h80l-235 -1334h539l-14 -80h-619z" />
<glyph unicode="M" horiz-adv-x="1442" d="M1598 1414l-249 -1414h-80l234 1328l-612 -651l-61 -66l-40 66l-382 651l-234 -1328h-80l249 1414h116l394 -670l629 670h116z" />
<glyph unicode="N" horiz-adv-x="1339" d="M459 1414l708 -1317l232 1317h80l-249 -1414h-123l-691 1286l-227 -1286h-80l249 1414h101z" />
<glyph unicode="O" horiz-adv-x="1575" d="M1516 1221.5q175 -212.5 122 -512.5q-53 -301 -303 -513.5t-551 -212.5q-300 0 -475 212.5t-122 513.5q53 300 303 512.5t550 212.5q301 0 476 -212.5zM1026 1353q-266 0 -488.5 -189t-269.5 -455q-47 -267 108.5 -456t421.5 -189q267 0 489.5 189t269.5 456 q47 266 -108.5 455t-422.5 189z" />
<glyph unicode="P" horiz-adv-x="959" d="M278 490l-86 -490h-80l249 1414h371q158 -22 252 -135q111 -136 77 -326q-34 -192 -193 -327.5t-350 -135.5h-240zM427 1333l-134 -762h240q157 0 288.5 111.5t159.5 270.5q28 158 -64.5 269t-249.5 111h-240z" />
<glyph unicode="Q" horiz-adv-x="1575" d="M1026 1353q-266 0 -488.5 -189t-269.5 -455q-47 -267 108.5 -456t421.5 -189q267 0 489.5 189t269.5 456q47 266 -108.5 455t-422.5 189zM776 -17q-294 3 -466 213q-176 212 -123 513q53 300 303 512.5t550 212.5q301 0 476 -212.5t122 -512.5q-53 -301 -302 -513 q-182 -154 -388 -196q5 -2 9 -3q62 -17 158 -86q67 -40 96 -49q18 -5 36 -5q31 0 65 17q50 26 73 77q8 15 12 29h80q-7 -24 -18 -49q-39 -83 -121 -125q-52 -28 -104 -28q-29 0 -57 9q-51 14 -137 76q-82 48 -118 58q-25 7 -49 7q-45 0 -89 -23q-72 -37 -104 -108 q-6 -11 -8 -21h-80q5 21 15 43q47 102 150 155q10 5 19 9z" />
<glyph unicode="R" horiz-adv-x="959" d="M427 1333l-134 -762h240q157 0 288.5 111.5t159.5 270.5q28 158 -64.5 269t-249.5 111h-240zM543 491q-13 -1 -25 -1h-240l-86 -490h-80l249 1414h371q158 -22 252 -135q111 -136 77 -326q-34 -192 -193 -327q-110 -94 -236 -123l237 -503h-98z" />
<glyph unicode="S" horiz-adv-x="942" d="M633 783q-142 50 -214 137.5t-50 212.5q21 122 124 210t228 88q123 0 197 -88q39 -47 48 -105l-77 -28q-8 43 -38 79q-53 64 -144 64t-166.5 -64t-91.5 -156q-16 -91 36 -156q50 -59 147 -108q160 -55 256 -171q100 -122 70 -295q-31 -174 -175 -297t-317 -123 q-174 0 -274 124q-82 98 -78 228l80 27q-9 -115 62 -200q83 -100 224 -100t258.5 100t142.5 241q25 140 -58 240q-72 88 -190 140z" />
<glyph unicode="T" horiz-adv-x="859" d="M704 1334l-235 -1334h-79l235 1334h-358l14 80h795l-14 -80h-358z" />
<glyph unicode="U" horiz-adv-x="1147" d="M1204 1414h80l-179 -1016q-51 -162 -184 -275q-159 -135 -350 -135q-192 0 -303 135t-77 326l170 965h80l-170 -965q-28 -157 64 -269t250 -112t289.5 112t159.5 269z" />
<glyph unicode="V" horiz-adv-x="1133" d="M515 0l-266 1413h84l247 -1313l718 1314h84l-770 -1414h-97z" />
<glyph unicode="W" horiz-adv-x="1642" d="M1040 999l197 -870l571 1285h83l-628 -1414h-81l-204 894l-518 -894h-82l-129 1414h82l116 -1285h1l504 870h88z" />
<glyph unicode="X" horiz-adv-x="1018" d="M15 0l585 777l-256 637h91l224 -559l421 559h91l-481 -637l313 -777h-91l-281 698l-526 -698h-90z" />
<glyph unicode="Y" horiz-adv-x="1116" d="M619 572l-338 842h91l302 -754l568 754h91l-634 -842l-101 -572h-80z" />
<glyph unicode="Z" horiz-adv-x="1075" d="M1089 1334h-670l14 80h807l-1006 -1334h841l-14 -80h-977z" />
<glyph unicode="[" horiz-adv-x="384" d="M128 -40h194l-14 -79h-274l294 1665h274l-14 -79h-194z" />
<glyph unicode="\" horiz-adv-x="627" d="M679 0h-90l-392 1414h91z" />
<glyph unicode="]" horiz-adv-x="384" d="M508 1467h-194l14 79h274l-294 -1665h-274l14 79h194z" />
<glyph unicode="^" horiz-adv-x="833" d="M463 1414l272 -472h-92l-226 391l-226 -391h-93l273 472h92z" />
<glyph unicode="_" horiz-adv-x="794" d="M-50 -27h884l-14 -79h-884z" />
<glyph unicode="`" horiz-adv-x="441" d="M440 1237l115 -165h-75l-187 165h147z" />
<glyph unicode="a" horiz-adv-x="1122" d="M1033 0h-80l31 177q-28 -31 -60 -59q-167 -143 -369 -143q-200 0 -317.5 142.5t-82.5 342.5q36 202 203.5 344t367.5 142q202 0 319 -142q22 -28 40 -59l21 123h80zM1021 382l27 157q-1 117 -74 205q-97 118 -263 118t-304 -118t-168 -284q-29 -166 68 -283t263 -117 t305 118q103 88 146 204z" />
<glyph unicode="b" horiz-adv-x="1131" d="M348 1414h80l-117 -668q27 30 60 58q167 142 368 142t318 -142t81 -344q-35 -200 -202 -342.5t-368 -142.5t-318 143q-23 28 -40 58l-31 -176h-80zM275 543l-30 -166q3 -113 74 -199q98 -118 264 -118t304 117t167 283t-67.5 284t-262.5 118t-305 -118 q-102 -87 -144 -201z" />
<glyph unicode="c" horiz-adv-x="985" d="M886 209l79 -31q-29 -31 -63 -60q-167 -143 -369 -143q-200 0 -317.5 142.5t-82.5 343.5q36 201 203.5 343t367.5 142q202 0 319 -142q24 -29 41 -60l-89 -31q-10 16 -22 32q-98 117 -264 117q-165 0 -303 -117.5t-168 -283.5q-29 -166 68 -283.5t262 -117.5 q166 0 305 118q17 15 33 31z" />
<glyph unicode="d" horiz-adv-x="1122" d="M1033 0h-80l31 177q-28 -31 -60 -59q-167 -143 -369 -143q-200 0 -317.5 142.5t-82.5 342.5q36 202 203.5 344t367.5 142q202 0 319 -142q22 -28 40 -59l117 669h80zM1021 382l27 157q-1 117 -74 205q-97 118 -263 118t-304 -118t-168 -284q-29 -166 68 -283t263 -117 t305 118q103 88 146 204z" />
<glyph unicode="e" horiz-adv-x="1042" d="M257 586h762q-11 91 -67 158q-97 118 -263 118t-305 -118q-82 -71 -127 -158zM228 505q-7 -21 -11 -45q-29 -166 68 -283t263 -117t305 118q23 20 45 42l80 -30q-20 -25 -76 -72q-167 -143 -369 -143q-200 0 -317.5 142.5t-82.5 342.5q36 202 203.5 344t367.5 142 q202 0 319 -142q103 -126 72 -299h-867z" />
<glyph unicode="f" horiz-adv-x="383" d="M329 788l-139 -788h-80l139 788h-88l14 80h88l41 235q24 98 105 169q85 67 179 67q50 0 102 -19l-38 -71q-34 16 -69 16q-62 0 -127 -50q-57 -49 -73 -118l-40 -229h177l-14 -80h-177z" />
<glyph unicode="g" horiz-adv-x="1083" d="M1026 543q-3 114 -74 201q-97 118 -263 118t-304 -118t-168 -284q-29 -166 68 -283.5t263 -117.5t304 118q100 85 144 199zM959 172q-27 -28 -57 -54q-167 -143 -369 -143q-200 0 -317.5 142.5t-82.5 342.5q36 202 203.5 343.5t367.5 141.5q202 0 319 -141q22 -28 40 -59 l21 123h80l-119 -674q-34 -196 -198 -334q-167 -143 -368 -143t-319 143q-23 29 -41 60l90 31q10 -16 23 -31q96 -118 262 -118q165 0 304 118q126 107 161 252z" />
<glyph unicode="h" horiz-adv-x="859" d="M343 1414h80l-104 -591q117 97 259 97q153 0 232.5 -96.5t56.5 -242.5l-102 -581h-80l101 573q20 111 -46.5 189t-175.5 78q-110 0 -202 -77q-43 -35 -66 -73l-122 -690h-80z" />
<glyph unicode="i" horiz-adv-x="317" d="M351 868l-153 -868h-79l153 868h79zM417.5 1152q19.5 -23 13.5 -55q-6 -34 -33.5 -57t-59.5 -23q-33 0 -52.5 23t-13.5 57q6 32 33.5 55t60.5 23q32 0 51.5 -23z" />
<glyph unicode="j" horiz-adv-x="284" d="M-32 -122q109 12 128 120l153 870h79l-153 -868q-32 -186 -221 -201zM395.5 1152q19.5 -23 13.5 -55q-6 -34 -33.5 -57t-59.5 -23q-33 0 -52.5 23t-13.5 57q6 32 33.5 55t60.5 23q32 0 51.5 -23z" />
<glyph unicode="k" horiz-adv-x="635" d="M675 868l-261 -265l235 -603h-98l-200 539l-94 -96l-78 -443h-80l218 1237h80l-117 -667l293 298h102z" />
<glyph unicode="l" horiz-adv-x="300" d="M439 1414l-249 -1414h-80l249 1414h80z" />
<glyph unicode="m" horiz-adv-x="1148" d="M252 868h80l-4 -21q87 72 190 72q107 0 169 -75q16 -20 27 -44q20 23 45 44q88 75 195 75t169 -75q58 -73 44 -174l-118 -670h-80l118 670h1q9 69 -31 117q-44 52 -117 52q-74 0 -135.5 -52t-75.5 -130l-116 -657h-79l118 670h1q8 69 -32 117q-44 52 -117 52t-134 -52 q-54 -45 -72 -110l-119 -677h-80z" />
<glyph unicode="n" horiz-adv-x="879" d="M298 674l-119 -674h-80l153 868h80l-10 -56q127 108 271 108q154 0 233.5 -96.5t55.5 -242.5l-102 -581h-79l101 573q20 111 -46.5 189t-176.5 78q-109 0 -202 -77q-51 -43 -79 -89z" />
<glyph unicode="o" horiz-adv-x="1114" d="M724 946q202 0 318.5 -142t80.5 -344q-35 -200 -201.5 -342.5t-368.5 -142.5q-200 0 -317.5 142.5t-82.5 342.5q36 202 203.5 344t367.5 142zM405 744q-138 -118 -168 -284q-29 -166 68 -283t263 -117t304 117t167 283q30 166 -67 284t-263 118t-304 -118z" />
<glyph unicode="p" horiz-adv-x="1110" d="M245 868h80l-21 -122q27 30 60 58q167 141 368 141t318 -141.5t81 -343.5q-35 -200 -202 -342.5t-368 -142.5t-318 143q-23 28 -40 58l-89 -507h-80zM268 543l-29 -166q2 -114 74 -200q97 -118 263 -118t304 117.5t167 283.5q30 166 -67 284t-263 118t-304 -118 q-103 -87 -145 -201z" />
<glyph unicode="q" horiz-adv-x="1107" d="M961 -331h-80l89 508q-28 -31 -60 -59q-167 -143 -369 -143q-200 0 -317.5 142.5t-82.5 342.5q36 202 203.5 343.5t367.5 141.5q202 0 319 -141q22 -28 40 -59l21 123h80zM1007 382l27 157q-1 117 -74 205q-97 118 -263 118t-304 -118t-168 -284q-29 -166 68 -283.5 t263 -117.5t304 118q104 88 147 205z" />
<glyph unicode="r" horiz-adv-x="406" d="M547 798q-68 -13 -147 -81q-132 -112 -164 -269l-79 -448h-80l153 868h80l-28 -158q30 35 69 68q86 73 165 97z" />
<glyph unicode="s" horiz-adv-x="644" d="M406 466q-92 55 -124 94q-50 61 -35 147t87 147.5t158 61.5t133 -57q45 -55 33 -126l-1 -4l-74 -28q3 67 -24 101t-81 34q-53 0 -97.5 -38t-54.5 -91q-9 -53 22 -91q18 -23 81 -68q102 -61 142 -109q62 -76 43 -181q-19 -108 -107.5 -183.5t-195.5 -75.5t-168.5 75.5 t-45.5 165.5l82 20q-13 -77 30 -129.5t116 -52.5t135.5 52.5t75.5 127.5q13 73 -31 125q-23 28 -99 83z" />
<glyph unicode="t" horiz-adv-x="497" d="M362 868l65 369h79l-65 -369h177l-14 -80h-177l-139 -788h-79l139 788h-177l14 80h177z" />
<glyph unicode="u" horiz-adv-x="880" d="M443 -12q-163 0 -242 96t-56 243l95 542h80l-94 -535q-19 -110 47 -188q65 -79 183 -79q110 0 203.5 78.5t112.5 188.5l94 535h80l-95 -542q-29 -147 -142 -243t-266 -96z" />
<glyph unicode="v" horiz-adv-x="814" d="M967 868l-511 -868h-102l-201 868h93l181 -743l447 743h93z" />
<glyph unicode="w" horiz-adv-x="1094" d="M245 868l90 -743l286 595h105l72 -595l358 743h91l-420 -868h-102l-75 592l-286 -592h-102l-109 868h92z" />
<glyph unicode="x" horiz-adv-x="637" d="M251 868l167 -307l274 307h94l-336 -387l-4 -5l2 -4l189 -472h-92l-157 391l-295 -391h-93l356 472l4 4l-2 5l-200 387h93z" />
<glyph unicode="y" horiz-adv-x="779" d="M463 163l-316 -493h-89l316 491l-206 707h89l178 -606l393 606h89l-453 -705h-1z" />
<glyph unicode="z" horiz-adv-x="743" d="M647 776h-448l14 79h585l-586 -775h483l-14 -80h-619z" />
<glyph unicode="{" horiz-adv-x="649" d="M171 657q10 -1 19 -1q53 0 111 30q105 54 152 158q27 59 38 124q6 36 26 174q-2 60 8 113q10 57 33 108q43 96 141 146q64 33 126 33q17 0 41 -4l-15 -80q-24 3 -38 3q-42 0 -85 -21q-66 -33 -95 -99q-20 -45 -30 -101q-4 -25 -8 -52q4 -64 -25 -226q-13 -71 -44 -140 q-61 -135 -210 -211q122 -76 136 -211q7 -68 -6 -139q-28 -162 -54 -226q-6 -27 -11 -52q-10 -57 -6 -102q6 -65 61 -98q36 -22 79 -22q13 0 38 3l-14 -80q-25 -3 -42 -3q-62 0 -114 32q-81 51 -90 148q-5 50 5 107q9 54 32 113q11 38 35 173q12 66 6 125q-11 103 -96 157 q-48 30 -101 30q-9 0 -19 -1z" />
<glyph unicode="|" horiz-adv-x="190" d="M407 1546l-294 -1670h-80l294 1670h80z" />
<glyph unicode="}" horiz-adv-x="649" d="M693 565q-9 1 -18 1q-53 0 -112 -30q-104 -54 -151 -157q-27 -59 -38 -125q-24 -135 -26 -173q2 -59 -8 -113q-10 -57 -33 -107q-43 -97 -142 -148q-64 -32 -126 -32q-17 0 -40 3l14 80q24 -3 37 -3q43 0 86 22q67 33 96 98q20 45 30 102q4 25 8 52q-4 64 25 226 q12 71 43 139q62 135 210 211q-121 76 -135 211q-7 69 5 140q29 162 55 226q6 27 10 52q10 56 6 101q-6 66 -60 99q-36 21 -78 21q-14 0 -39 -3l14 80q25 4 42 4q62 0 114 -33q81 -50 90 -146q5 -51 -5 -108q-9 -53 -32 -113q-29 -138 -36 -174q-11 -65 -5 -124 q10 -104 96 -158q47 -30 100 -30q9 0 20 1z" />
<glyph unicode="~" horiz-adv-x="1057" d="M528 761q166 -97 242 -97q13 0 23 3q68 20 96 88q13 34 13 69l80 -13q-3 -42 -20 -86q-41 -98 -138 -130q-22 -7 -49 -7q-93 0 -246 87q-168 96 -242 96q-12 0 -23 -2q-68 -21 -95 -89q-14 -34 -14 -68l-80 13q2 42 19 85q41 98 139 131q22 7 49 7q93 0 246 -87z" />
<glyph unicode="&#xa1;" horiz-adv-x="269" d="M300.5 1291q-19.5 23 -13.5 56q5 33 32.5 56t59.5 23q33 0 52.5 -23t14.5 -56q-6 -33 -33.5 -56t-60.5 -23q-32 0 -51.5 23zM90 0l206 1170h80l-206 -1170h-80z" />
<glyph unicode="&#xa2;" d="M685 623q128 2 235 93q13 11 28 27l72 -28q-28 -31 -55 -55q-134 -114 -294 -116l-24 -136h-79l25 142q-112 21 -184 110q-96 115 -67 278q28 163 165 279q103 88 223 109l25 143h79l-24 -137q159 -1 253 -115q19 -24 36 -54l-82 -29q-10 16 -19 28q-75 90 -202 92z M716 1246q-87 -20 -164 -84q-108 -93 -131 -224q-23 -130 53 -222q53 -66 134 -85z" />
<glyph unicode="&#xa3;" d="M517 490q0 -18 -1 -38q-2 -19 -5 -38q-32 -181 -214 -358q118 39 225 39q63 0 123 -14q85 -20 163 -20q71 0 136 16l1 -79q-75 -17 -152 -17q-78 0 -157 19q-84 19 -150 19q-60 0 -106 -15q-98 -34 -192 -77l-61 91q127 97 161 131q115 113 141 258q3 20 5 39q2 22 2 44 h-201l14 80h184q-8 84 -36 167q-70 159 -57 303q1 17 4 34q22 122 120 220q110 108 257 122h34q123 0 206 -81q93 -93 82 -236q-2 -20 -5 -39q-10 -55 -37 -100l-71 25q19 38 27 84q3 13 4 25q9 109 -63 179q-64 62 -157 62q-13 0 -25 -1q-112 -9 -196 -93q-76 -75 -92 -167 q-2 -14 -4 -27q-8 -100 30 -226q54 -122 62 -251h175l-14 -80h-160z" />
<glyph unicode="&#xa4;" d="M539 1292q109 78 237 78t210 -78l144 123l47 -57l-144 -123q62 -95 39 -223q-22 -128 -118 -224l101 -123l-67 -56l-101 123q-109 -79 -237 -79t-210 79l-144 -123l-47 56l145 123q-62 96 -40 224q23 128 119 223l-102 123l67 57zM920 1235q-63 56 -158 56 q-96 0 -176 -56q-18 -11 -35 -25q-18 -15 -32 -31q-68 -72 -85 -167q-17 -96 26 -167q9 -16 21 -30q12 -15 26 -27q61 -55 157 -55q95 0 177 55q18 12 35 27q17 14 31 30q68 71 85 167q17 95 -26 167q-9 16 -20 31q-12 14 -26 25z" />
<glyph unicode="&#xa5;" d="M657 667l562 747h91l-563 -747h260l-14 -79h-306l-11 -16l-16 -90h314l-14 -80h-314l-71 -402h-80l71 402h-313l14 80h313l16 90l-6 16h-304l14 79h258l-300 747h91l299 -747h9z" />
<glyph unicode="&#xa6;" horiz-adv-x="190" d="M385 1414l-127 -718h-80l127 718h80zM204 387l-127 -718h-80l127 718h80z" />
<glyph unicode="&#xa7;" d="M856 305q12 12 27 25q66 56 91 198q25 140 -58 240q-72 87 -190 139q-142 51 -214 138q-31 38 -45 83q-11 -12 -28 -25q-65 -56 -89 -197q-25 -141 57 -241q72 -87 190 -139q142 -51 214 -138q31 -38 45 -83zM457 1203q-1 26 4 54q22 122 125 210t228 88q123 0 197 -87 q39 -47 48 -105l-77 -29q-8 44 -38 80q-53 63 -144 63t-166.5 -64t-92.5 -156q-16 -91 37 -155q50 -59 147 -109q160 -55 256 -170q100 -122 70 -295q-31 -175 -123 -253q-37 -32 -62 -45q0 -26 -5 -54q-22 -122 -125 -210t-227 -88t-196 88q-41 46 -49 105l76 28 q9 -43 38 -80q54 -63 145 -63t167 64t92 156q16 91 -38 155q-49 60 -147 109q-159 55 -255 171q-101 122 -70 295q30 174 123 252q37 32 62 45z" />
<glyph unicode="&#xa8;" horiz-adv-x="574" d="M436.5 1282q19.5 -23 13.5 -55q-6 -34 -33.5 -57t-59.5 -23q-33 0 -52.5 23t-13.5 57q6 32 33.5 55t60.5 23q32 0 51.5 -23zM701.5 1282q19.5 -23 13.5 -55q-6 -34 -33.5 -57t-59.5 -23q-33 0 -52.5 23t-13.5 57q6 32 33.5 55t60.5 23q32 0 51.5 -23z" />
<glyph unicode="&#xa9;" horiz-adv-x="1075" d="M728 399l73 -28q-24 -32 -41 -50q-88 -88 -212 -88t-212 88t-88 212t88 211.5t212 87.5t212 -87q17 -19 41 -51l-73 -27q-13 15 -22 25q-66 65 -158 65q-93 0 -159 -65.5t-66 -158.5t66 -159t159 -66q92 0 158 66q9 9 22 25zM917.5 913.5q157.5 -157.5 157.5 -380.5 t-157.5 -380.5t-379.5 -157.5q-223 0 -380.5 157.5t-157.5 380.5t157.5 380.5t380.5 157.5q222 0 379.5 -157.5zM538 994q-191 0 -326 -135t-135 -326t135 -326t326 -135t325.5 135t134.5 326t-134.5 326t-325.5 135z" />
<glyph unicode="&#xaa;" horiz-adv-x="554" d="M664 937h-62l9 52q-75 -63 -168 -63q-94 0 -146.5 73t-34.5 175t96.5 175.5t172.5 73.5q93 0 142 -83l8 45h62zM637 1137l13 73q2 52 -28 92q-37 52 -103 52q-67 0 -123.5 -52.5t-69.5 -127.5t24.5 -127t104.5 -52q66 0 122 52q43 39 60 90z" />
<glyph unicode="&#xab;" horiz-adv-x="816" d="M434 425l477 425l-20 -113l-345 -312l235 -311l-20 -114zM130 425l471 425l-20 -113l-346 -312l236 -311l-20 -114z" />
<glyph unicode="&#xac;" d="M935 246h-80v339h-720v80h800v-419z" />
<glyph unicode="&#xae;" horiz-adv-x="973" d="M393 1204v-320h96q66 0 113 47t47 113t-47 113t-113 47h-96zM608 641l-115 179h-100v-137h-62v583h182q79 -10 134 -65q64 -65 64 -157q0 -94 -64 -159q-47 -45 -86 -55l106 -163q40 24 79 62q108 108 108 260t-107.5 259.5t-259.5 107.5q-153 0 -260.5 -107.5 t-107.5 -259.5t108 -260q51 -51 112 -78q24 -10 50 -18q46 -12 98 -12q68 0 121 20zM487 557q-180 0 -306 126.5t-126 305.5t126 305.5t306 126.5q178 0 304.5 -126.5t126.5 -305.5t-126 -306q-45 -44 -124 -85t-181 -41z" />
<glyph unicode="&#xaf;" horiz-adv-x="671" d="M287 1203h521l-14 -80h-521z" />
<glyph unicode="&#xb0;" horiz-adv-x="382" d="M295 1313.5q43 -43.5 43 -103.5q0 -61 -43 -104t-104 -43t-104 43t-43 104q0 60 43 103.5t104 43.5t104 -43.5zM191 1292q-34 0 -58 -24t-24 -58t24 -58.5t58 -24.5t58 24.5t24 58.5t-24 58t-58 24z" />
<glyph unicode="&#xb1;" d="M495 80v403h-410v80h410v410h80v-410h410v-80h-410v-403h410v-80h-900v80h410z" />
<glyph unicode="&#xb2;" horiz-adv-x="426" d="M128 697q374 450 401 485.5t32 65.5q3 15 2 31q-3 47 -39 73q-26 17 -57 17q-14 0 -28 -3q-49 -11 -81 -52q-19 -22 -31 -62l-74 11q14 55 45 92q56 69 136 87q25 5 47 5q55 0 97 -30q61 -43 65 -121q2 -28 -3 -53q-8 -47 -41 -92t-312 -378h270l-13 -76h-416z" />
<glyph unicode="&#xb3;" horiz-adv-x="467" d="M401 1093l-50 2l13 74q56 1 81 10t56.5 37.5t37.5 66.5q7 38 -14.5 64.5t-59.5 26.5q-37 0 -68 -27q-18 -15 -38 -51l-65 28q25 51 56 78q59 49 129 49t111 -49.5t28 -118.5q-12 -70 -87 -145q20 -7 57 -56q53 -70 36 -164q-17 -95 -95.5 -162t-173.5 -67q-94 0 -151 67 q-43 54 -41 141l80 27q-4 -75 27 -113q36 -44 98 -44q63 0 115 44t63 107t-24 110.5t-121 64.5z" />
<glyph unicode="&#xb4;" horiz-adv-x="441" d="M584 1237l-246 -165h-74l173 165h147z" />
<glyph unicode="&#xb5;" horiz-adv-x="815" d="M677 98q-5 -4 -11 -10q-114 -96 -267 -96q-142 0 -225 97l-74 -420h-80l211 1199h80l-113 -646q10 -38 39 -74q66 -76 176 -76q109 0 204 78q60 51 89 115l106 603h78l-153 -868h-78z" />
<glyph unicode="&#xb6;" d="M1001 1416l-308 -1747h-79l159 902h-135q-191 0 -302 135t-77 327q34 191 192 326q133 113 299 135h71v1h434l-14 -79h-78l-308 -1747h-80l308 1747h-82z" />
<glyph unicode="&#xb7;" horiz-adv-x="245" d="M303.5 754.5q16.5 -19.5 11.5 -47.5t-28.5 -47.5t-50.5 -19.5q-28 0 -44.5 19.5t-11.5 47.5t28.5 47.5t51.5 19.5q27 0 43.5 -19.5z" />
<glyph unicode="&#xb8;" horiz-adv-x="434" d="M257 8l-67 -64q33 6 59 6q51 0 76 -23q34 -31 27 -74l-2 -9q-14 -49 -77 -90q-54 -28 -109 -28q-31 0 -63 9l26 51q26 -11 53 -11q31 0 63 15q28 18 37 43q2 5 3 11q3 18 -8 32q-15 17 -46 18h-4q-29 0 -48 -6q-20 -7 -63 -33l-29 34l91 119h81z" />
<glyph unicode="&#xb9;" horiz-adv-x="396" d="M296 765l95 537l-62 -37l-54 45l218 139l-121 -684h153l-13 -76h-386l13 76h157z" />
<glyph unicode="&#xba;" horiz-adv-x="532" d="M441 995q73 5 121 52q51 52 64 127t-19 128q-31 47 -102 52q-73 -5 -119 -52q-52 -53 -65 -128t20 -127q29 -47 100 -52zM419 926q-84 0 -129.5 73t-27.5 175t89.5 175.5t155.5 73.5h20q84 0 129.5 -73.5t27.5 -175.5t-89.5 -175t-155.5 -73h-20z" />
<glyph unicode="&#xbb;" horiz-adv-x="816" d="M55 0l20 114l344 311l-234 312l20 113l327 -425zM365 0l20 114l345 311l-235 312l20 113l321 -425z" />
<glyph unicode="&#xbc;" horiz-adv-x="1537" d="M1344 820l-100 -562h67l-13 -76h-67l-32 -182h-76l32 182h-306zM1220 549l-226 -291h174zM453 765l95 537l-63 -37l-53 45l217 139l-120 -684h153l-14 -76h-386l14 76h157zM1781 1414l-1664 -1414h-112l1662 1414h114z" />
<glyph unicode="&#xbd;" horiz-adv-x="1537" d="M453 765l95 537l-63 -37l-53 45l217 139l-120 -684h153l-14 -76h-386l14 76h157zM1781 1414l-1664 -1414h-112l1662 1414h114zM933 0q376 451 402 486.5t31 65.5q3 14 2 30q-2 48 -39 73q-25 18 -56 18q-14 0 -29 -4q-49 -10 -81 -51q-19 -23 -31 -62l-74 11q15 55 45 92 q56 68 136 86q25 6 47 6q55 0 98 -31q60 -43 64 -120q2 -28 -3 -54q-8 -46 -41 -91t-312 -379h270l-13 -76h-416z" />
<glyph unicode="&#xbe;" horiz-adv-x="1537" d="M1781 1414l-1664 -1414h-112l1662 1414h114zM1344 820l-100 -562h67l-13 -76h-67l-32 -182h-76l32 182h-306zM1220 549l-226 -291h174zM525 1063l-49 2l13 74q56 1 80.5 10t56 37.5t38.5 66.5t-14.5 64.5t-59.5 26.5q-37 0 -69 -27q-17 -15 -38 -51l-65 28q25 51 57 78 q59 49 129 49t110.5 -49.5t28.5 -118.5q-12 -70 -88 -145q20 -7 57 -56q53 -70 37 -164q-17 -95 -96 -162t-174 -67q-94 0 -150 67q-43 54 -41 141l80 27q-5 -75 27 -113q36 -44 98 -44q63 0 114.5 44t63.5 107q11 63 -24.5 110.5t-121.5 64.5z" />
<glyph unicode="&#xbf;" horiz-adv-x="795" d="M682 1169q32 -44 32 -126q0 -27 -5 -54q-15 -85 -80 -159q-55 -63 -201 -166q-129 -101 -172 -150q-63 -71 -78 -154q-4 -24 -4 -49q0 -113 82 -179q65 -50 147 -50q24 0 50 4q114 20 195 113q66 75 80 151q3 19 2 39l84 -6q1 -20 -3 -41q-16 -90 -102 -189 q-105 -121 -256 -147q-35 -6 -68 -6q-106 0 -188 64q-105 85 -105 233q0 33 6 65q18 105 99 200q70 78 233 192q106 83 140 123q47 53 58 115q3 18 3 37q0 48 -17 75zM604.5 1292q-19.5 23 -13.5 56q5 33 32.5 56t59.5 23q33 0 52.5 -23t14.5 -56q-6 -33 -33.5 -56 t-60.5 -23q-32 0 -51.5 23z" />
<glyph unicode="&#xc0;" horiz-adv-x="1116" d="M898 701l-111 593l-320 -593h431zM849 1414l264 -1414h-84l-116 622h-489l-340 -622h-85l768 1414h82zM809 1703l115 -165h-75l-187 165h147z" />
<glyph unicode="&#xc1;" horiz-adv-x="1116" d="M898 701l-111 593l-320 -593h431zM849 1414l264 -1414h-84l-116 622h-489l-340 -622h-85l768 1414h82zM1050 1703l-246 -165h-74l173 165h147z" />
<glyph unicode="&#xc2;" horiz-adv-x="1116" d="M898 701l-111 593l-320 -593h431zM849 1414l264 -1414h-84l-116 622h-489l-340 -622h-85l768 1414h82zM904 1736l175 -207h-92l-143 126l-177 -126h-93l238 207h92z" />
<glyph unicode="&#xc3;" horiz-adv-x="1116" d="M898 701l-111 593l-320 -593h431zM849 1414l264 -1414h-84l-116 622h-489l-340 -622h-85l768 1414h82zM861 1673q51 -43 74 -43h4q20 7 32 32q7 14 13 49l63 -13q-8 -37 -20 -61q-28 -55 -75 -74q-13 -4 -26 -4q-41 0 -97 45q-51 44 -74 44q-3 0 -5 -1q-18 -6 -30 -32 q-8 -14 -14 -49l-62 14q7 37 19 60q28 55 76 74q12 5 26 5q41 0 96 -46z" />
<glyph unicode="&#xc4;" horiz-adv-x="1116" d="M898 701l-111 593l-320 -593h431zM849 1414l264 -1414h-84l-116 622h-489l-340 -622h-85l768 1414h82zM787.5 1748q19.5 -23 14.5 -55q-6 -34 -34 -57t-60 -23q-33 0 -52 23t-13 57q5 32 32.5 55t60.5 23q32 0 51.5 -23zM1052.5 1748q19.5 -23 14.5 -55q-6 -34 -34 -57 t-60 -23q-33 0 -52 23t-13 57q5 32 32.5 55t60.5 23q32 0 51.5 -23z" />
<glyph unicode="&#xc5;" horiz-adv-x="1116" d="M898 701l-111 593l-320 -593h431zM849 1414l264 -1414h-84l-116 622h-489l-340 -622h-85l768 1414h82zM933 1699q26 -32 18 -77q-8 -44 -45 -75.5t-82 -31.5t-71.5 31.5t-18.5 75.5q8 45 45.5 77t82.5 32t71 -32zM852 1674q-22 0 -39.5 -15t-21.5 -37q-4 -20 8.5 -35 t34.5 -15q20 0 37.5 15t21.5 35q4 22 -8.5 37t-32.5 15z" />
<glyph unicode="&#xc6;" horiz-adv-x="1442" d="M1519 747l-14 -80h-627l-104 -587h627l-14 -80h-706l96 542h-300l-337 -542h-85l864 1414h717l-14 -80h-627l-103 -587h627zM790 621l111 629l-382 -629h271z" />
<glyph unicode="&#xc7;" horiz-adv-x="1347" d="M612 5q-174 47 -291 190q-175 211 -122 512q53 299 302 511.5t550 212.5q280 0 453 -189l-70 -54q-154 161 -398 161q-266 0 -487.5 -188t-268.5 -454q-47 -267 108.5 -455t421.5 -188q244 0 454 161l52 -54q-241 -188 -521 -188q-61 0 -116 9l-50 -48q33 6 59 6 q51 0 76 -23q34 -31 26 -74l-1 -9q-14 -49 -77 -90q-54 -28 -109 -28q-31 0 -63 9l26 51q26 -11 53 -11q31 0 62 15q29 18 38 43q2 5 3 11q3 18 -8 32q-15 17 -46 18h-4q-29 0 -48 -6q-21 -7 -63 -33l-29 34z" />
<glyph unicode="&#xc8;" horiz-adv-x="931" d="M1068 1414l-14 -80h-627l-103 -587h627l-14 -80h-627l-104 -587h627l-14 -80h-707l249 1414h707zM733 1783l115 -165h-75l-187 165h147z" />
<glyph unicode="&#xc9;" horiz-adv-x="931" d="M1068 1414l-14 -80h-627l-103 -587h627l-14 -80h-627l-104 -587h627l-14 -80h-707l249 1414h707zM974 1783l-246 -165h-74l173 165h147z" />
<glyph unicode="&#xca;" horiz-adv-x="931" d="M1068 1414l-14 -80h-627l-103 -587h627l-14 -80h-627l-104 -587h627l-14 -80h-707l249 1414h707zM827 1816l175 -207h-92l-143 126l-177 -126h-93l238 207h92z" />
<glyph unicode="&#xcb;" horiz-adv-x="931" d="M1068 1414l-14 -80h-627l-103 -587h627l-14 -80h-627l-104 -587h627l-14 -80h-707l249 1414h707zM711.5 1828q19.5 -23 14.5 -55q-6 -34 -33.5 -57t-59.5 -23q-33 0 -52.5 23t-13.5 57q5 32 32.5 55t60.5 23q32 0 51.5 -23zM976.5 1828q19.5 -23 14.5 -55 q-6 -34 -33.5 -57t-59.5 -23q-33 0 -52.5 23t-13.5 57q5 32 32.5 55t60.5 23q32 0 51.5 -23z" />
<glyph unicode="&#xcc;" horiz-adv-x="324" d="M451 1414l-249 -1414h-80l249 1414h80zM429 1783l115 -165h-75l-187 165h147z" />
<glyph unicode="&#xcd;" horiz-adv-x="324" d="M451 1414l-249 -1414h-80l249 1414h80zM670 1783l-246 -165h-74l173 165h147z" />
<glyph unicode="&#xce;" horiz-adv-x="324" d="M452 1414l-249 -1414h-80l249 1414h80zM524 1816l175 -207h-92l-143 126l-177 -126h-93l238 207h92z" />
<glyph unicode="&#xcf;" horiz-adv-x="324" d="M451 1414l-249 -1414h-80l249 1414h80zM407.5 1828q19.5 -23 14.5 -55q-6 -34 -33.5 -57t-59.5 -23q-33 0 -52.5 23t-13.5 57q5 32 32.5 55t60.5 23q32 0 51.5 -23zM672.5 1828q19.5 -23 14.5 -55q-6 -34 -33.5 -57t-59.5 -23q-33 0 -52.5 23t-13.5 57q5 32 32.5 55 t60.5 23q32 0 51.5 -23z" />
<glyph unicode="&#xd0;" horiz-adv-x="1240" d="M346 667l-103 -585h181q305 0 511 170q221 188 268 455q47 266 -108 455q-146 169 -451 169h-181l-103 -584h492l-14 -80h-492zM280 747l118 667h262q348 -2 506 -195q175 -213 122 -512q-53 -301 -302 -513q-226 -192 -576 -194h-262l118 667h-128l14 80h128z" />
<glyph unicode="&#xd1;" horiz-adv-x="1339" d="M459 1414l708 -1317l232 1317h80l-249 -1414h-123l-691 1286l-227 -1286h-80l249 1414h101zM974 1673q51 -43 74 -43h4q20 7 32 32q7 14 13 49l63 -13q-8 -37 -20 -61q-28 -55 -75 -74q-13 -4 -26 -4q-41 0 -97 45q-51 44 -74 44q-3 0 -5 -1q-18 -6 -30 -32 q-8 -14 -14 -49l-62 14q7 37 19 60q28 55 76 74q12 5 26 5q41 0 96 -46z" />
<glyph unicode="&#xd2;" horiz-adv-x="1575" d="M1516 1221.5q175 -212.5 122 -512.5q-53 -301 -303 -513.5t-551 -212.5q-300 0 -475 212.5t-122 513.5q53 300 303 512.5t550 212.5q301 0 476 -212.5zM1026 1353q-266 0 -488.5 -189t-269.5 -455q-47 -267 108.5 -456t421.5 -189q267 0 489.5 189t269.5 456 q47 266 -108.5 455t-422.5 189zM1055 1783l115 -165h-75l-187 165h147z" />
<glyph unicode="&#xd3;" horiz-adv-x="1575" d="M1516 1221.5q175 -212.5 122 -512.5q-53 -301 -303 -513.5t-551 -212.5q-300 0 -475 212.5t-122 513.5q53 300 303 512.5t550 212.5q301 0 476 -212.5zM1026 1353q-266 0 -488.5 -189t-269.5 -455q-47 -267 108.5 -456t421.5 -189q267 0 489.5 189t269.5 456 q47 266 -108.5 455t-422.5 189zM1296 1783l-246 -165h-74l173 165h147z" />
<glyph unicode="&#xd4;" horiz-adv-x="1575" d="M1516 1221.5q175 -212.5 122 -512.5q-53 -301 -303 -513.5t-551 -212.5q-300 0 -475 212.5t-122 513.5q53 300 303 512.5t550 212.5q301 0 476 -212.5zM1026 1353q-266 0 -488.5 -189t-269.5 -455q-47 -267 108.5 -456t421.5 -189q267 0 489.5 189t269.5 456 q47 266 -108.5 455t-422.5 189zM1149 1816l175 -207h-92l-143 126l-177 -126h-93l238 207h92z" />
<glyph unicode="&#xd5;" horiz-adv-x="1575" d="M1516 1221.5q175 -212.5 122 -512.5q-53 -301 -303 -513.5t-551 -212.5q-300 0 -475 212.5t-122 513.5q53 300 303 512.5t550 212.5q301 0 476 -212.5zM1026 1353q-266 0 -488.5 -189t-269.5 -455q-47 -267 108.5 -456t421.5 -189q267 0 489.5 189t269.5 456 q47 266 -108.5 455t-422.5 189zM1106 1753q52 -43 75 -43h4q19 7 31 32q7 14 13 49l64 -13q-9 -37 -21 -61q-28 -55 -75 -74q-13 -4 -26 -4q-41 0 -97 45q-51 44 -74 44q-3 0 -4 -1q-18 -6 -31 -32q-8 -14 -14 -49l-62 14q7 37 19 60q28 55 76 74q12 5 26 5q41 0 96 -46z " />
<glyph unicode="&#xd6;" horiz-adv-x="1575" d="M1516 1221.5q175 -212.5 122 -512.5q-53 -301 -303 -513.5t-551 -212.5q-300 0 -475 212.5t-122 513.5q53 300 303 512.5t550 212.5q301 0 476 -212.5zM1026 1353q-266 0 -488.5 -189t-269.5 -455q-47 -267 108.5 -456t421.5 -189q267 0 489.5 189t269.5 456 q47 266 -108.5 455t-422.5 189zM1033.5 1828q19.5 -23 14.5 -55q-6 -34 -33.5 -57t-59.5 -23q-33 0 -52.5 23t-13.5 57q5 32 32.5 55t60.5 23q32 0 51.5 -23zM1298.5 1828q19.5 -23 14.5 -55q-6 -34 -33.5 -57t-59.5 -23q-33 0 -52.5 23t-13.5 57q5 32 32.5 55t60.5 23 q32 0 51.5 -23z" />
<glyph unicode="&#xd7;" d="M534 466l-289 -289l-57 56l290 290l-290 290l57 56l289 -289l290 289l57 -56l-290 -290l290 -290l-57 -56z" />
<glyph unicode="&#xd8;" horiz-adv-x="1647" d="M1290 1310q-100 43 -228 43q-266 0 -488.5 -189t-269.5 -455q-47 -267 109 -456q56 -68 127 -113zM606 107q101 -43 228 -43q267 0 489.5 189t269.5 456q47 266 -109 456q-57 68 -127 111zM1404 1350q82 -49 149 -128q174 -213 121 -513q-53 -301 -303 -513.5 t-551 -212.5q-145 0 -261 51l-105 -163l-66 34l105 162q-82 50 -147 129q-176 212 -123 513q53 300 303 512.5t550 212.5q146 0 262 -50l105 162l66 -33z" />
<glyph unicode="&#xd9;" horiz-adv-x="1147" d="M1204 1414h80l-179 -1016q-51 -162 -184 -275q-159 -135 -350 -135q-192 0 -303 135t-77 326l170 965h80l-170 -965q-28 -157 64 -269t250 -112t289.5 112t159.5 269zM841 1783l115 -165h-75l-187 165h147z" />
<glyph unicode="&#xda;" horiz-adv-x="1147" d="M1204 1414h80l-179 -1016q-51 -162 -184 -275q-159 -135 -350 -135q-192 0 -303 135t-77 326l170 965h80l-170 -965q-28 -157 64 -269t250 -112t289.5 112t159.5 269zM1082 1783l-246 -165h-74l173 165h147z" />
<glyph unicode="&#xdb;" horiz-adv-x="1147" d="M1204 1414h80l-179 -1016q-51 -162 -184 -275q-159 -135 -350 -135q-192 0 -303 135t-77 326l170 965h80l-170 -965q-28 -157 64 -269t250 -112t289.5 112t159.5 269zM935 1816l174 -207h-92l-143 126l-177 -126h-93l239 207h92z" />
<glyph unicode="&#xdc;" horiz-adv-x="1147" d="M1204 1414h80l-179 -1016q-51 -162 -184 -275q-159 -135 -350 -135q-192 0 -303 135t-77 326l170 965h80l-170 -965q-28 -157 64 -269t250 -112t289.5 112t159.5 269zM819.5 1828q19.5 -23 13.5 -55q-6 -34 -33.5 -57t-59.5 -23q-33 0 -52.5 23t-13.5 57q6 32 33.5 55 t60.5 23q32 0 51.5 -23zM1084.5 1828q19.5 -23 13.5 -55q-6 -34 -33.5 -57t-59.5 -23q-33 0 -52.5 23t-13.5 57q6 32 33.5 55t60.5 23q32 0 51.5 -23z" />
<glyph unicode="&#xdd;" horiz-adv-x="1116" d="M619 572l-338 842h91l302 -754l568 754h91l-634 -842l-101 -572h-80zM1066 1783l-246 -165h-74l173 165h147z" />
<glyph unicode="&#xde;" horiz-adv-x="946" d="M384 1169h291q158 -22 251 -135q112 -135 78 -326q-34 -192 -193 -327t-350 -135h-240l-43 -246h-80l249 1414h80zM235 326h240q157 0 289 112t160 270t-64.5 269.5t-249.5 111.5h-240z" />
<glyph unicode="&#xdf;" horiz-adv-x="978" d="M322 1193q25 64 77 116q96 97 222 111q20 2 38 2q104 0 174 -66q83 -79 75 -201q-2 -24 -5 -46q-17 -95 -76 -158q-73 -79 -135 -110q128 -27 207 -108q114 -116 102 -289q-1 -26 -6 -51q-25 -143 -138 -259q-134 -136 -312 -155q-25 -3 -50 -3q-142 0 -243 94l65 64 q80 -74 194 -74q20 0 40 2q143 16 250 125q90 91 110 206q4 20 6 42q9 139 -82 233t-177 102.5t-84 49.5q-1 4 0 9q6 34 54 57q55 26 122 98q56 61 69 134q2 13 3 27q6 91 -54 147q-51 47 -125 47q-13 0 -27 -2q-90 -9 -160 -79q-37 -38 -57 -82l-207 -1176h-80z" />
<glyph unicode="&#xe0;" horiz-adv-x="1122" d="M1033 0h-80l31 177q-28 -31 -60 -59q-167 -143 -369 -143q-200 0 -317.5 142.5t-82.5 342.5q36 202 203.5 344t367.5 142q202 0 319 -142q22 -28 40 -59l21 123h80zM1021 382l27 157q-1 117 -74 205q-97 118 -263 118t-304 -118t-168 -284q-29 -166 68 -283t263 -117 t305 118q103 88 146 204zM725 1237l115 -165h-75l-187 165h147z" />
<glyph unicode="&#xe1;" horiz-adv-x="1122" d="M1033 0h-80l31 177q-28 -31 -60 -59q-167 -143 -369 -143q-200 0 -317.5 142.5t-82.5 342.5q36 202 203.5 344t367.5 142q202 0 319 -142q22 -28 40 -59l21 123h80zM1021 382l27 157q-1 117 -74 205q-97 118 -263 118t-304 -118t-168 -284q-29 -166 68 -283t263 -117 t305 118q103 88 146 204zM966 1237l-246 -165h-74l173 165h147z" />
<glyph unicode="&#xe2;" horiz-adv-x="1122" d="M1033 0h-80l31 177q-28 -31 -60 -59q-167 -143 -369 -143q-200 0 -317.5 142.5t-82.5 342.5q36 202 203.5 344t367.5 142q202 0 319 -142q22 -28 40 -59l21 123h80zM1021 382l27 157q-1 117 -74 205q-97 118 -263 118t-304 -118t-168 -284q-29 -166 68 -283t263 -117 t305 118q103 88 146 204zM819 1270l175 -207h-92l-143 126l-177 -126h-93l238 207h92z" />
<glyph unicode="&#xe3;" horiz-adv-x="1122" d="M1033 0h-80l31 177q-28 -31 -60 -59q-167 -143 -369 -143q-200 0 -317.5 142.5t-82.5 342.5q36 202 203.5 344t367.5 142q202 0 319 -142q22 -28 40 -59l21 123h80zM1021 382l27 157q-1 117 -74 205q-97 118 -263 118t-304 -118t-168 -284q-29 -166 68 -283t263 -117 t305 118q103 88 146 204zM776 1207q51 -43 74 -43h4q20 7 32 32q7 14 13 49l63 -13q-8 -37 -20 -61q-28 -55 -75 -74q-13 -4 -26 -4q-41 0 -97 45q-51 44 -74 44q-3 0 -5 -1q-18 -6 -30 -32q-8 -14 -14 -49l-62 14q7 37 19 60q28 55 76 74q12 5 26 5q41 0 96 -46z" />
<glyph unicode="&#xe4;" horiz-adv-x="1122" d="M1033 0h-80l31 177q-28 -31 -60 -59q-167 -143 -369 -143q-200 0 -317.5 142.5t-82.5 342.5q36 202 203.5 344t367.5 142q202 0 319 -142q22 -28 40 -59l21 123h80zM1021 382l27 157q-1 117 -74 205q-97 118 -263 118t-304 -118t-168 -284q-29 -166 68 -283t263 -117 t305 118q103 88 146 204zM703.5 1282q19.5 -23 14.5 -55q-6 -34 -34 -57t-60 -23q-33 0 -52 23t-13 57q5 32 32.5 55t60.5 23q32 0 51.5 -23zM968.5 1282q19.5 -23 14.5 -55q-6 -34 -34 -57t-60 -23q-33 0 -52 23t-13 57q5 32 32.5 55t60.5 23q32 0 51.5 -23z" />
<glyph unicode="&#xe5;" horiz-adv-x="1122" d="M1021 382l27 157q-1 117 -74 205q-97 118 -263 118t-304 -118t-168 -284q-29 -166 68 -283t263 -117t305 118q103 88 146 204zM748 1098q-22 0 -40 -15t-21 -37q-4 -20 8.5 -35t34.5 -15q20 0 37.5 15t21.5 35q3 22 -9 37t-32 15zM758 945q179 -10 287 -141 q22 -28 40 -59l21 123h80l-153 -868h-80l31 177q-28 -31 -60 -59q-167 -143 -369 -143q-200 0 -317.5 142.5t-82.5 342.5q36 202 204 344q149 127 327 141q-22 7 -38 26q-26 31 -18 75q8 45 45.5 77t82.5 32t71 -32t18 -77q-8 -44 -45 -75q-21 -18 -44 -26z" />
<glyph unicode="&#xe6;" horiz-adv-x="1873" d="M1027 653q-18 49 -53 91q-97 118 -263 118t-304 -118t-168 -284q-29 -166 68 -283t263 -117t305 118q49 42 84 90q40 53 62 114l27 157q0 61 -21 114zM1841 586q-11 91 -68 158q-96 118 -262 118t-305 -118q-28 -24 -50 -49l-20 -109h705zM1073 226q14 -25 34 -48 q97 -118 263 -118t304 118q24 20 45 42l80 -30q-20 -25 -76 -72q-167 -143 -368 -143q-189 0 -304 127l-18 -102h-80l31 177q-28 -31 -60 -59q-167 -143 -369 -143q-200 0 -317.5 142.5t-82.5 342.5q36 202 203.5 344t367.5 142q202 0 319 -142q22 -28 40 -59l21 123h80 l-8 -48q159 126 348 126q201 0 318 -142q104 -126 78 -299l-800 1z" />
<glyph unicode="&#xe7;" horiz-adv-x="985" d="M413 -10q-118 31 -197 128q-118 142 -83 343q36 201 203.5 343t367.5 142q202 0 319 -142q24 -29 41 -60l-89 -31q-10 16 -22 32q-98 117 -264 117q-165 0 -303 -117.5t-168 -283.5q-29 -166 68 -283.5t262 -117.5q166 0 305 118q17 15 33 31l79 -31q-29 -31 -63 -60 q-167 -143 -369 -143q-29 0 -56 3l-36 -34q33 6 59 6q51 0 76 -23q35 -31 27 -74l-1 -9q-14 -49 -77 -90q-54 -28 -109 -28q-31 0 -64 9l26 51q26 -11 53 -11q31 0 63 15q28 18 38 43q2 5 3 11q3 18 -9 32q-15 17 -46 18h-4q-29 0 -48 -6q-20 -7 -62 -33l-29 34z" />
<glyph unicode="&#xe8;" horiz-adv-x="1042" d="M257 586h762q-11 91 -67 158q-97 118 -263 118t-305 -118q-82 -71 -127 -158zM228 505q-7 -21 -11 -45q-29 -166 68 -283t263 -117t305 118q23 20 45 42l80 -30q-20 -25 -76 -72q-167 -143 -369 -143q-200 0 -317.5 142.5t-82.5 342.5q36 202 203.5 344t367.5 142 q202 0 319 -142q103 -126 72 -299h-867zM700 1237l115 -165h-75l-187 165h147z" />
<glyph unicode="&#xe9;" horiz-adv-x="1042" d="M257 586h762q-11 91 -67 158q-97 118 -263 118t-305 -118q-82 -71 -127 -158zM228 505q-7 -21 -11 -45q-29 -166 68 -283t263 -117t305 118q23 20 45 42l80 -30q-20 -25 -76 -72q-167 -143 -369 -143q-200 0 -317.5 142.5t-82.5 342.5q36 202 203.5 344t367.5 142 q202 0 319 -142q103 -126 72 -299h-867zM941 1237l-246 -165h-74l173 165h147z" />
<glyph unicode="&#xea;" horiz-adv-x="1042" d="M257 586h762q-11 91 -67 158q-97 118 -263 118t-305 -118q-82 -71 -127 -158zM228 505q-7 -21 -11 -45q-29 -166 68 -283t263 -117t305 118q23 20 45 42l80 -30q-20 -25 -76 -72q-167 -143 -369 -143q-200 0 -317.5 142.5t-82.5 342.5q36 202 203.5 344t367.5 142 q202 0 319 -142q103 -126 72 -299h-867zM795 1270l175 -207h-92l-143 126l-177 -126h-93l238 207h92z" />
<glyph unicode="&#xeb;" horiz-adv-x="1042" d="M257 586h762q-11 91 -67 158q-97 118 -263 118t-305 -118q-82 -71 -127 -158zM228 505q-7 -21 -11 -45q-29 -166 68 -283t263 -117t305 118q23 20 45 42l80 -30q-20 -25 -76 -72q-167 -143 -369 -143q-200 0 -317.5 142.5t-82.5 342.5q36 202 203.5 344t367.5 142 q202 0 319 -142q103 -126 72 -299h-867zM678.5 1282q19.5 -23 14.5 -55q-6 -34 -34 -57t-60 -23q-33 0 -52 23t-13 57q5 32 32.5 55t60.5 23q32 0 51.5 -23zM943.5 1282q19.5 -23 14.5 -55q-6 -34 -34 -57t-60 -23q-33 0 -52 23t-13 57q5 32 32.5 55t60.5 23q32 0 51.5 -23z " />
<glyph unicode="&#xec;" horiz-adv-x="369" d="M377 868l-153 -868h-79l153 868h79zM356 1237l115 -165h-75l-187 165h147z" />
<glyph unicode="&#xed;" horiz-adv-x="369" d="M377 868l-153 -868h-79l153 868h79zM597 1237l-246 -165h-74l173 165h147z" />
<glyph unicode="&#xee;" horiz-adv-x="369" d="M377 868l-153 -868h-79l153 868h79zM449 1270l175 -207h-92l-143 126l-177 -126h-93l238 207h92z" />
<glyph unicode="&#xef;" horiz-adv-x="369" d="M378 868l-153 -868h-79l153 868h79zM334.5 1282q19.5 -23 13.5 -55q-6 -34 -33.5 -57t-59.5 -23q-33 0 -52.5 23t-13.5 57q6 32 33.5 55t60.5 23q32 0 51.5 -23zM599.5 1282q19.5 -23 13.5 -55q-6 -34 -33.5 -57t-59.5 -23q-33 0 -52.5 23t-13.5 57q6 32 33.5 55t60.5 23 q32 0 51.5 -23z" />
<glyph unicode="&#xf0;" horiz-adv-x="1114" d="M237 460q-29 -166 68 -283t263 -117t304 117t167 283q30 166 -67 284t-263 118t-304 -118t-168 -284zM1043 804q116 -142 80 -344q-35 -200 -201.5 -342.5t-368.5 -142.5q-200 0 -317.5 142.5t-82.5 342.5q36 202 203.5 344t367.5 142q39 0 74 -5l-144 176l-168 -143 h-114l235 200l-162 196h112l116 -140l161 137h114l-228 -194q286 -325 323 -369z" />
<glyph unicode="&#xf1;" horiz-adv-x="879" d="M298 674l-119 -674h-80l153 868h80l-10 -56q127 108 271 108q154 0 233.5 -96.5t55.5 -242.5l-102 -581h-79l101 573q20 111 -46.5 189t-176.5 78q-109 0 -202 -77q-51 -43 -79 -89zM662 1207q51 -43 74 -43h4q19 7 32 32q6 14 13 49l63 -13q-8 -37 -21 -61 q-27 -55 -75 -74q-12 -4 -25 -4q-41 0 -97 45q-52 44 -75 44q-3 0 -4 -1q-18 -6 -30 -32q-8 -14 -14 -49l-63 14q8 37 20 60q28 55 76 74q12 5 26 5q41 0 96 -46z" />
<glyph unicode="&#xf2;" horiz-adv-x="1114" d="M724 946q202 0 318.5 -142t80.5 -344q-35 -200 -201.5 -342.5t-368.5 -142.5q-200 0 -317.5 142.5t-82.5 342.5q36 202 203.5 344t367.5 142zM405 744q-138 -118 -168 -284q-29 -166 68 -283t263 -117t304 117t167 283q30 166 -67 284t-263 118t-304 -118zM728 1237 l115 -165h-75l-187 165h147z" />
<glyph unicode="&#xf3;" horiz-adv-x="1114" d="M724 946q202 0 318.5 -142t80.5 -344q-35 -200 -201.5 -342.5t-368.5 -142.5q-200 0 -317.5 142.5t-82.5 342.5q36 202 203.5 344t367.5 142zM405 744q-138 -118 -168 -284q-29 -166 68 -283t263 -117t304 117t167 283q30 166 -67 284t-263 118t-304 -118zM969 1237 l-246 -165h-74l173 165h147z" />
<glyph unicode="&#xf4;" horiz-adv-x="1114" d="M724 946q202 0 318.5 -142t80.5 -344q-35 -200 -201.5 -342.5t-368.5 -142.5q-200 0 -317.5 142.5t-82.5 342.5q36 202 203.5 344t367.5 142zM405 744q-138 -118 -168 -284q-29 -166 68 -283t263 -117t304 117t167 283q30 166 -67 284t-263 118t-304 -118zM823 1270 l175 -207h-92l-143 126l-177 -126h-93l238 207h92z" />
<glyph unicode="&#xf5;" horiz-adv-x="1114" d="M724 946q202 0 318.5 -142t80.5 -344q-35 -200 -201.5 -342.5t-368.5 -142.5q-200 0 -317.5 142.5t-82.5 342.5q36 202 203.5 344t367.5 142zM405 744q-138 -118 -168 -284q-29 -166 68 -283t263 -117t304 117t167 283q30 166 -67 284t-263 118t-304 -118zM780 1207 q51 -43 74 -43h4q20 7 32 32q7 14 13 49l63 -13q-8 -37 -20 -61q-28 -55 -75 -74q-13 -4 -26 -4q-41 0 -97 45q-51 44 -74 44q-3 0 -5 -1q-18 -6 -30 -32q-8 -14 -14 -49l-62 14q7 37 19 60q28 55 76 74q12 5 26 5q41 0 96 -46z" />
<glyph unicode="&#xf6;" horiz-adv-x="1114" d="M724 946q202 0 318.5 -142t80.5 -344q-35 -200 -201.5 -342.5t-368.5 -142.5q-200 0 -317.5 142.5t-82.5 342.5q36 202 203.5 344t367.5 142zM405 744q-138 -118 -168 -284q-29 -166 68 -283t263 -117t304 117t167 283q30 166 -67 284t-263 118t-304 -118zM706.5 1282 q19.5 -23 14.5 -55q-6 -34 -34 -57t-60 -23q-33 0 -52 23t-13 57q5 32 32.5 55t60.5 23q32 0 51.5 -23zM971.5 1282q19.5 -23 14.5 -55q-6 -34 -34 -57t-60 -23q-33 0 -52 23t-13 57q5 32 32.5 55t60.5 23q32 0 51.5 -23z" />
<glyph unicode="&#xf7;" d="M85 483v80h900v-80h-900zM591.5 271q23.5 -23 23.5 -56t-23.5 -56t-55.5 -23q-33 0 -56.5 23t-23.5 56t23.5 56t56.5 23q32 0 55.5 -23zM591.5 888q23.5 -23 23.5 -56t-23.5 -56t-55.5 -23q-33 0 -56.5 23t-23.5 56t23.5 56t56.5 23q32 0 55.5 -23z" />
<glyph unicode="&#xf8;" horiz-adv-x="1080" d="M852 828q-70 34 -160 34q-166 0 -304 -117.5t-168 -283.5q-29 -166 67 -283q20 -24 44 -43zM913 787l-522 -692q70 -34 160 -34q166 0 304 117t167 283q30 166 -67 284q-19 24 -42 42zM275 62q-31 25 -57 56q-117 143 -82 343q36 202 203.5 344t367.5 142q114 0 202 -46 l140 188l63 -37l-143 -190q31 -25 57 -57q116 -142 80 -344q-35 -200 -201.5 -342.5t-368.5 -142.5q-114 0 -200 46l-142 -188l-64 33z" />
<glyph unicode="&#xf9;" horiz-adv-x="880" d="M443 -12q-163 0 -242 96t-56 243l95 542h80l-94 -535q-19 -110 47 -188q65 -79 183 -79q110 0 203.5 78.5t112.5 188.5l94 535h80l-95 -542q-29 -147 -142 -243t-266 -96zM611 1237l115 -165h-75l-187 165h147z" />
<glyph unicode="&#xfa;" horiz-adv-x="880" d="M443 -12q-163 0 -242 96t-56 243l95 542h80l-94 -535q-19 -110 47 -188q65 -79 183 -79q110 0 203.5 78.5t112.5 188.5l94 535h80l-95 -542q-29 -147 -142 -243t-266 -96zM852 1237l-246 -165h-74l173 165h147z" />
<glyph unicode="&#xfb;" horiz-adv-x="880" d="M443 -12q-163 0 -242 96t-56 243l95 542h80l-94 -535q-19 -110 47 -188q65 -79 183 -79q110 0 203.5 78.5t112.5 188.5l94 535h80l-95 -542q-29 -147 -142 -243t-266 -96zM706 1270l175 -207h-92l-143 126l-177 -126h-93l238 207h92z" />
<glyph unicode="&#xfc;" horiz-adv-x="880" d="M443 -12q-163 0 -242 96t-56 243l95 542h80l-94 -535q-19 -110 47 -188q65 -79 183 -79q110 0 203.5 78.5t112.5 188.5l94 535h80l-95 -542q-29 -147 -142 -243t-266 -96zM589.5 1282q19.5 -23 14.5 -55q-6 -34 -33.5 -57t-59.5 -23q-33 0 -52.5 23t-13.5 57 q5 32 32.5 55t60.5 23q32 0 51.5 -23zM854.5 1282q19.5 -23 14.5 -55q-6 -34 -33.5 -57t-59.5 -23q-33 0 -52.5 23t-13.5 57q5 32 32.5 55t60.5 23q32 0 51.5 -23z" />
<glyph unicode="&#xfd;" horiz-adv-x="779" d="M463 163l-316 -493h-89l316 491l-206 707h89l178 -606l393 606h89l-453 -705h-1zM802 1237l-246 -165h-74l173 165h147z" />
<glyph unicode="&#xfe;" horiz-adv-x="1204" d="M305 559l-35 -198q7 -104 74 -184q96 -118 262 -118t304.5 117.5t167.5 283.5t-67.5 284t-262.5 118t-304 -118q-95 -80 -139 -185zM339 750q26 28 55 54q168 141 368 141q202 0 318.5 -141.5t81.5 -343.5q-35 -200 -202 -342.5t-369 -142.5q-200 0 -317 143 q-21 25 -37 53l-86 -487h-80l274 1553h80z" />
<glyph unicode="&#xff;" horiz-adv-x="779" d="M463 163l-316 -493h-89l316 491l-206 707h89l178 -606l393 606h89l-453 -705h-1zM539.5 1282q19.5 -23 14.5 -55q-6 -34 -34 -57t-60 -23q-33 0 -52 23t-13 57q5 32 32.5 55t60.5 23q32 0 51.5 -23zM804.5 1282q19.5 -23 14.5 -55q-6 -34 -34 -57t-60 -23q-33 0 -52 23 t-13 57q5 32 32.5 55t60.5 23q32 0 51.5 -23z" />
<glyph unicode="&#x100;" horiz-adv-x="1116" d="M898 701l-111 593l-320 -593h431zM849 1414l264 -1414h-84l-116 622h-489l-340 -622h-85l768 1414h82zM587 1650h521l-11 -62h-521z" />
<glyph unicode="&#x101;" horiz-adv-x="1122" d="M1033 0h-80l31 177q-28 -31 -60 -59q-167 -143 -369 -143q-200 0 -317.5 142.5t-82.5 342.5q36 202 203.5 344t367.5 142q202 0 319 -142q22 -28 40 -59l21 123h80zM1021 382l27 157q-1 117 -74 205q-97 118 -263 118t-304 -118t-168 -284q-29 -166 68 -283t263 -117 t305 118q103 88 146 204zM502 1184h521l-11 -62h-521z" />
<glyph unicode="&#x102;" horiz-adv-x="1116" d="M898 701l-111 593l-320 -593h431zM849 1414l264 -1414h-84l-116 622h-489l-340 -622h-85l768 1414h82zM722 1748q-1 -47 27 -80q35 -43 96 -43q59 0 108 43q41 33 55 80h64q-20 -73 -82 -126q-71 -61 -157 -61q-88 0 -137 61q-47 58 -39 126h65z" />
<glyph unicode="&#x103;" horiz-adv-x="1122" d="M1033 0h-80l31 177q-28 -31 -60 -59q-167 -143 -369 -143q-200 0 -317.5 142.5t-82.5 342.5q36 202 203.5 344t367.5 142q202 0 319 -142q22 -28 40 -59l21 123h80zM1021 382l27 157q-1 117 -74 205q-97 118 -263 118t-304 -118t-168 -284q-29 -166 68 -283t263 -117 t305 118q103 88 146 204zM637 1282q-1 -47 27 -80q35 -43 96 -43q59 0 108 43q41 33 55 80h64q-20 -73 -82 -126q-71 -61 -157 -61q-88 0 -137 61q-47 58 -39 126h65z" />
<glyph unicode="&#x104;" horiz-adv-x="1116" d="M898 701l-111 593l-320 -593h431zM1023 34l-110 588h-489l-340 -622h-85l768 1414h82l264 -1414h-59q-57 -18 -86 -40q-33 -25 -42 -62l-1 -6q-6 -33 12 -59q19 -28 52 -30q3 -1 6 -1q31 0 70 23l9 -48l-5 -3q-37 -28 -83 -28h-12q-56 4 -87 49q-28 41 -19 93q1 7 4 14 q15 61 67 100q42 30 84 32z" />
<glyph unicode="&#x105;" horiz-adv-x="1122" d="M1021 382l27 157q-1 117 -74 205q-97 118 -263 118t-304 -118t-168 -284q-29 -166 68 -283t263 -117t305 118q103 88 146 204zM959 34l25 143q-28 -31 -60 -59q-167 -143 -369 -143q-200 0 -317.5 142.5t-82.5 342.5q36 202 203.5 344t367.5 142q202 0 319 -142 q22 -28 40 -59l21 123h80l-153 -868h-59q-57 -18 -86 -40q-33 -25 -42 -62l-1 -6q-6 -33 12 -59q19 -28 52 -30q3 -1 6 -1q31 0 70 23l9 -48l-5 -3q-37 -28 -83 -28h-12q-56 4 -87 49q-28 41 -19 93l4 14q16 61 68 100q43 32 88 32h11z" />
<glyph unicode="&#x106;" horiz-adv-x="1347" d="M1264 225l52 -54q-241 -188 -521 -188q-301 0 -475 211.5t-121 512.5q53 299 302 511.5t550 212.5q280 0 453 -189l-70 -54q-154 161 -398 161q-266 0 -487.5 -188t-268.5 -454q-47 -267 108.5 -455t421.5 -188q244 0 454 161zM1289 1783l-246 -165h-74l173 165h147z" />
<glyph unicode="&#x107;" horiz-adv-x="985" d="M886 209l79 -31q-29 -31 -63 -60q-167 -143 -369 -143q-200 0 -317.5 142.5t-82.5 343.5q36 201 203.5 343t367.5 142q202 0 319 -142q24 -29 41 -60l-89 -31q-10 16 -22 32q-98 117 -264 117q-165 0 -303 -117.5t-168 -283.5q-29 -166 68 -283.5t262 -117.5 q166 0 305 118q17 15 33 31zM955 1237l-246 -165h-74l173 165h147z" />
<glyph unicode="&#x108;" horiz-adv-x="1347" d="M1264 225l52 -54q-241 -188 -521 -188q-301 0 -475 211.5t-121 512.5q53 299 302 511.5t550 212.5q280 0 453 -189l-70 -54q-154 161 -398 161q-266 0 -487.5 -188t-268.5 -454q-47 -267 108.5 -455t421.5 -188q244 0 454 161zM1142 1816l174 -207h-92l-143 126 l-177 -126h-93l239 207h92z" />
<glyph unicode="&#x109;" horiz-adv-x="985" d="M886 209l79 -31q-29 -31 -63 -60q-167 -143 -369 -143q-200 0 -317.5 142.5t-82.5 343.5q36 201 203.5 343t367.5 142q202 0 319 -142q24 -29 41 -60l-89 -31q-10 16 -22 32q-98 117 -264 117q-165 0 -303 -117.5t-168 -283.5q-29 -166 68 -283.5t262 -117.5 q166 0 305 118q17 15 33 31zM808 1270l175 -207h-92l-143 126l-177 -126h-93l238 207h92z" />
<glyph unicode="&#x10a;" horiz-adv-x="1347" d="M1264 225l52 -54q-241 -188 -521 -188q-301 0 -475 211.5t-121 512.5q53 299 302 511.5t550 212.5q280 0 453 -189l-70 -54q-154 161 -398 161q-266 0 -487.5 -188t-268.5 -454q-47 -267 108.5 -455t421.5 -188q244 0 454 161zM1146.5 1807.5q16.5 -19.5 11.5 -47.5 t-28.5 -47.5t-50.5 -19.5q-28 0 -44.5 19.5t-11.5 47.5t28.5 47.5t51.5 19.5q27 0 43.5 -19.5z" />
<glyph unicode="&#x10b;" horiz-adv-x="985" d="M886 209l79 -31q-29 -31 -63 -60q-167 -143 -369 -143q-200 0 -317.5 142.5t-82.5 343.5q36 201 203.5 343t367.5 142q202 0 319 -142q24 -29 41 -60l-89 -31q-10 16 -22 32q-98 117 -264 117q-165 0 -303 -117.5t-168 -283.5q-29 -166 68 -283.5t262 -117.5 q166 0 305 118q17 15 33 31zM812.5 1261.5q16.5 -19.5 11.5 -47.5t-28.5 -47.5t-50.5 -19.5q-28 0 -44.5 19.5t-11.5 47.5t28.5 47.5t51.5 19.5q27 0 43.5 -19.5z" />
<glyph unicode="&#x10c;" horiz-adv-x="1347" d="M1264 225l52 -54q-241 -188 -521 -188q-301 0 -475 211.5t-121 512.5q53 299 302 511.5t550 212.5q280 0 453 -189l-70 -54q-154 161 -398 161q-266 0 -487.5 -188t-268.5 -454q-47 -267 108.5 -455t421.5 -188q244 0 454 161zM1013 1609l-165 207h93l132 -126l188 126 h92l-248 -207h-92z" />
<glyph unicode="&#x10d;" horiz-adv-x="985" d="M886 209l79 -31q-29 -31 -63 -60q-167 -143 -369 -143q-200 0 -317.5 142.5t-82.5 343.5q36 201 203.5 343t367.5 142q202 0 319 -142q24 -29 41 -60l-89 -31q-10 16 -22 32q-98 117 -264 117q-165 0 -303 -117.5t-168 -283.5q-29 -166 68 -283.5t262 -117.5 q166 0 305 118q17 15 33 31zM680 1063l-166 207h93l133 -126l187 126h92l-247 -207h-92z" />
<glyph unicode="&#x10e;" horiz-adv-x="1189" d="M623 1414q349 -2 507 -195q174 -213 122 -512q-53 -301 -303 -513q-226 -192 -575 -194h-262l249 1414h262zM427 1331l-221 -1249h181q305 0 511 170q222 188 269 455q47 266 -108 455q-146 169 -451 169h-181zM853 1609l-166 207h93l133 -126l187 126h92l-247 -207h-92z " />
<glyph unicode="&#x10f;" horiz-adv-x="1269" d="M1033 0h-80l31 177q-28 -31 -60 -59q-167 -143 -369 -143q-200 0 -317.5 142.5t-82.5 342.5q36 202 203.5 344t367.5 142q202 0 319 -142q22 -28 40 -59l117 669h80zM1021 382l27 157q-1 117 -74 205q-97 118 -263 118t-304 -118t-168 -284q-29 -166 68 -283t263 -117 t305 118q103 88 146 204zM1393 1268q-20 4 -32 20q-20 23 -14 57q6 33 33.5 55.5t60.5 22.5q32 0 51.5 -22.5t13.5 -55.5q-3 -19 -12 -35l-118 -175h-57z" />
<glyph unicode="&#x110;" horiz-adv-x="1261" d="M346 667l-103 -585h181q305 0 511 170q221 188 268 455q47 266 -108 455q-146 169 -451 169h-181l-103 -584h492l-14 -80h-492zM280 747l118 667h262q348 -2 506 -195q175 -213 122 -512q-53 -301 -302 -513q-226 -192 -576 -194h-262l118 667h-128l14 80h128z" />
<glyph unicode="&#x111;" horiz-adv-x="1145" d="M1021 382l27 157q-1 117 -74 205q-97 118 -263 118t-304 -118t-168 -284q-29 -166 68 -283t263 -117t305 118q103 88 146 204zM1233 1134l-200 -1134h-80l31 177q-28 -31 -60 -59q-167 -143 -369 -143q-200 0 -317.5 142.5t-82.5 342.5q36 202 203.5 344t367.5 142 q202 0 319 -142q22 -28 40 -59l68 389h-306l14 79h306l35 201h80l-35 -201h114l-14 -79h-114z" />
<glyph unicode="&#x112;" horiz-adv-x="931" d="M1068 1414l-14 -80h-627l-103 -587h627l-14 -80h-627l-104 -587h627l-14 -80h-707l249 1414h707zM510 1730h521l-11 -62h-521z" />
<glyph unicode="&#x113;" horiz-adv-x="1042" d="M257 586h762q-11 91 -67 158q-97 118 -263 118t-305 -118q-82 -71 -127 -158zM228 505q-7 -21 -11 -45q-29 -166 68 -283t263 -117t305 118q23 20 45 42l80 -30q-20 -25 -76 -72q-167 -143 -369 -143q-200 0 -317.5 142.5t-82.5 342.5q36 202 203.5 344t367.5 142 q202 0 319 -142q103 -126 72 -299h-867zM478 1184h521l-11 -62h-521z" />
<glyph unicode="&#x114;" horiz-adv-x="931" d="M1068 1414l-14 -80h-627l-103 -587h627l-14 -80h-627l-104 -587h627l-14 -80h-707l249 1414h707zM645 1828q-1 -47 27 -80q35 -43 96 -43q59 0 108 43q41 33 55 80h64q-20 -73 -82 -126q-71 -61 -157 -61q-88 0 -137 61q-47 58 -39 126h65z" />
<glyph unicode="&#x115;" horiz-adv-x="1042" d="M257 586h762q-11 91 -67 158q-97 118 -263 118t-305 -118q-82 -71 -127 -158zM228 505q-7 -21 -11 -45q-29 -166 68 -283t263 -117t305 118q23 20 45 42l80 -30q-20 -25 -76 -72q-167 -143 -369 -143q-200 0 -317.5 142.5t-82.5 342.5q36 202 203.5 344t367.5 142 q202 0 319 -142q103 -126 72 -299h-867zM613 1282q-1 -47 27 -80q35 -43 96 -43q59 0 108 43q41 33 55 80h64q-20 -73 -82 -126q-71 -61 -157 -61q-88 0 -137 61q-47 58 -39 126h65z" />
<glyph unicode="&#x116;" horiz-adv-x="931" d="M1068 1414l-14 -80h-627l-103 -587h627l-14 -80h-627l-104 -587h627l-14 -80h-707l249 1414h707zM831.5 1807.5q16.5 -19.5 11.5 -47.5t-28 -47.5t-50 -19.5q-28 0 -45 19.5t-12 47.5t28.5 47.5t51.5 19.5q27 0 43.5 -19.5z" />
<glyph unicode="&#x117;" horiz-adv-x="1042" d="M257 586h762q-11 91 -67 158q-97 118 -263 118t-305 -118q-82 -71 -127 -158zM228 505q-7 -21 -11 -45q-29 -166 68 -283t263 -117t305 118q23 20 45 42l80 -30q-20 -25 -76 -72q-167 -143 -369 -143q-200 0 -317.5 142.5t-82.5 342.5q36 202 203.5 344t367.5 142 q202 0 319 -142q103 -126 72 -299h-867zM799.5 1261.5q16.5 -19.5 11.5 -47.5t-28.5 -47.5t-50.5 -19.5q-28 0 -44.5 19.5t-11.5 47.5t28.5 47.5t51.5 19.5q27 0 43.5 -19.5z" />
<glyph unicode="&#x118;" horiz-adv-x="931" d="M643 0h-531l249 1414h707l-14 -80h-627l-103 -587h627l-14 -80h-627l-104 -587h627l-14 -80h-59q-57 -18 -86 -40q-33 -25 -42 -62l-1 -6q-6 -33 12 -59q19 -28 52 -30q3 -1 6 -1q31 0 70 23l9 -48l-5 -3q-37 -28 -83 -28h-12q-56 4 -87 49q-28 41 -19 93q1 7 4 14 q15 59 65 98z" />
<glyph unicode="&#x119;" horiz-adv-x="1038" d="M257 586h762q-11 91 -67 158q-97 118 -263 118t-305 -118q-82 -71 -127 -158zM691 -2q-76 -23 -158 -23q-200 0 -317.5 142.5t-82.5 342.5q36 202 203.5 344t367.5 142q202 0 319 -142q103 -126 72 -299h-867q-7 -21 -11 -45q-29 -166 68 -283t263 -117t305 118 q23 20 45 42l80 -30q-20 -25 -76 -72q-24 -20 -48 -37q-116 -90 -125 -127l-1 -6q-6 -33 12 -59q19 -28 52 -30q3 -1 6 -1q31 0 70 23l9 -48l-5 -3q-37 -28 -83 -28h-12q-56 4 -87 49q-28 41 -19 93l4 14q6 22 16 40z" />
<glyph unicode="&#x11a;" horiz-adv-x="931" d="M1068 1414l-14 -80h-627l-103 -587h627l-14 -80h-627l-104 -587h627l-14 -80h-707l249 1414h707zM699 1609l-166 207h93l133 -126l187 126h92l-247 -207h-92z" />
<glyph unicode="&#x11b;" horiz-adv-x="1042" d="M257 586h762q-11 91 -67 158q-97 118 -263 118t-305 -118q-82 -71 -127 -158zM228 505q-7 -21 -11 -45q-29 -166 68 -283t263 -117t305 118q23 20 45 42l80 -30q-20 -25 -76 -72q-167 -143 -369 -143q-200 0 -317.5 142.5t-82.5 342.5q36 202 203.5 344t367.5 142 q202 0 319 -142q103 -126 72 -299h-867zM667 1063l-166 207h93l133 -126l187 126h92l-247 -207h-92z" />
<glyph unicode="&#x11c;" horiz-adv-x="1359" d="M1310 176q-235 -193 -515 -193q-301 0 -475 211.5t-121 512.5q53 299 302 511.5t550 212.5q280 0 453 -189l-70 -54q-154 161 -398 161q-266 0 -487.5 -188t-268.5 -454q-47 -267 108.5 -455t421.5 -188q228 0 426 140l76 431h79zM1142 1816l174 -207h-92l-143 126 l-177 -126h-93l239 207h92z" />
<glyph unicode="&#x11d;" horiz-adv-x="1083" d="M1026 543q-3 114 -74 201q-97 118 -263 118t-304 -118t-168 -284q-29 -166 68 -283.5t263 -117.5t304 118q100 85 144 199zM959 172q-27 -28 -57 -54q-167 -143 -369 -143q-200 0 -317.5 142.5t-82.5 342.5q36 202 203.5 343.5t367.5 141.5q202 0 319 -141q22 -28 40 -59 l21 123h80l-119 -674q-34 -196 -198 -334q-167 -143 -368 -143t-319 143q-23 29 -41 60l90 31q10 -16 23 -31q96 -118 262 -118q165 0 304 118q126 107 161 252zM797 1270l175 -207h-92l-143 126l-177 -126h-93l238 207h92z" />
<glyph unicode="&#x11e;" horiz-adv-x="1359" d="M1310 176q-235 -193 -515 -193q-301 0 -475 211.5t-121 512.5q53 299 302 511.5t550 212.5q280 0 453 -189l-70 -54q-154 161 -398 161q-266 0 -487.5 -188t-268.5 -454q-47 -267 108.5 -455t421.5 -188q228 0 426 140l76 431h79zM960 1828q-2 -47 27 -80q34 -43 95 -43 q59 0 109 43q40 33 55 80h64q-20 -73 -82 -126q-71 -61 -157 -61q-88 0 -137 61q-47 58 -39 126h65z" />
<glyph unicode="&#x11f;" horiz-adv-x="1083" d="M1026 543q-3 114 -74 201q-97 118 -263 118t-304 -118t-168 -284q-29 -166 68 -283.5t263 -117.5t304 118q100 85 144 199zM959 172q-27 -28 -57 -54q-167 -143 -369 -143q-200 0 -317.5 142.5t-82.5 342.5q36 202 203.5 343.5t367.5 141.5q202 0 319 -141q22 -28 40 -59 l21 123h80l-119 -674q-34 -196 -198 -334q-167 -143 -368 -143t-319 143q-23 29 -41 60l90 31q10 -16 23 -31q96 -118 262 -118q165 0 304 118q126 107 161 252zM615 1282q-1 -47 27 -80q35 -43 96 -43q59 0 108 43q41 33 55 80h64q-20 -73 -82 -126q-71 -61 -157 -61 q-88 0 -137 61q-47 58 -39 126h65z" />
<glyph unicode="&#x120;" horiz-adv-x="1359" d="M1310 176q-235 -193 -515 -193q-301 0 -475 211.5t-121 512.5q53 299 302 511.5t550 212.5q280 0 453 -189l-70 -54q-154 161 -398 161q-266 0 -487.5 -188t-268.5 -454q-47 -267 108.5 -455t421.5 -188q228 0 426 140l76 431h79zM1146.5 1807.5q16.5 -19.5 11.5 -47.5 t-28.5 -47.5t-50.5 -19.5q-28 0 -44.5 19.5t-11.5 47.5t28.5 47.5t51.5 19.5q27 0 43.5 -19.5z" />
<glyph unicode="&#x121;" horiz-adv-x="1083" d="M1026 543q-3 114 -74 201q-97 118 -263 118t-304 -118t-168 -284q-29 -166 68 -283.5t263 -117.5t304 118q100 85 144 199zM959 172q-27 -28 -57 -54q-167 -143 -369 -143q-200 0 -317.5 142.5t-82.5 342.5q36 202 203.5 343.5t367.5 141.5q202 0 319 -141q22 -28 40 -59 l21 123h80l-119 -674q-34 -196 -198 -334q-167 -143 -368 -143t-319 143q-23 29 -41 60l90 31q10 -16 23 -31q96 -118 262 -118q165 0 304 118q126 107 161 252zM801.5 1261.5q16.5 -19.5 11.5 -47.5t-28.5 -47.5t-50.5 -19.5q-28 0 -44.5 19.5t-11.5 47.5t28.5 47.5 t51.5 19.5q27 0 43.5 -19.5z" />
<glyph unicode="&#x122;" horiz-adv-x="1359" d="M697 -11q-232 30 -376 206q-175 211 -122 512q53 299 302 511.5t550 212.5q280 0 453 -189l-70 -54q-154 161 -398 161q-266 0 -487.5 -188t-268.5 -454q-47 -267 108.5 -455t421.5 -188q228 0 426 140l76 431h79l-81 -459q-235 -193 -515 -193q-17 0 -32 1l-21 -20 q33 6 59 6q51 0 76 -23q35 -31 27 -74l-2 -9q-13 -49 -76 -90q-54 -28 -109 -28q-31 0 -64 9l26 51q26 -11 53 -11q31 0 63 15q28 18 37 43q2 5 3 11q4 18 -8 32q-15 17 -46 18h-4q-29 0 -48 -6q-20 -7 -63 -33l-29 34z" />
<glyph unicode="&#x123;" horiz-adv-x="1083" d="M1026 543q-3 114 -74 201q-97 118 -263 118t-304 -118t-168 -284q-29 -166 68 -283.5t263 -117.5t304 118q100 85 144 199zM959 172q-27 -28 -57 -54q-167 -143 -369 -143q-200 0 -317.5 142.5t-82.5 342.5q36 202 203.5 343.5t367.5 141.5q202 0 319 -141q22 -28 40 -59 l21 123h80l-119 -674q-34 -196 -198 -334q-167 -143 -368 -143t-319 143q-23 29 -41 60l90 31q10 -16 23 -31q96 -118 262 -118q165 0 304 118q126 107 161 252zM756 1196q19 -4 32 -20q19 -23 13 -57q-5 -33 -32.5 -55.5t-60.5 -22.5q-32 0 -51.5 22.5t-14.5 55.5 q4 19 13 35l117 175h57z" />
<glyph unicode="&#x124;" horiz-adv-x="1072" d="M292 667l-118 -667h-80l249 1414h80l-117 -667h724l117 667h80l-249 -1414h-80l118 667h-724zM898 1816l175 -207h-92l-143 126l-177 -126h-93l238 207h92z" />
<glyph unicode="&#x125;" horiz-adv-x="859" d="M343 1414h80l-104 -591q117 97 259 97q153 0 232.5 -96.5t56.5 -242.5l-102 -581h-80l101 573q20 111 -46.5 189t-175.5 78q-110 0 -202 -77q-43 -35 -66 -73l-122 -690h-80zM782 1766l175 -207h-92l-143 126l-177 -126h-93l238 207h92z" />
<glyph unicode="&#x126;" horiz-adv-x="1072" d="M1178 1135l-200 -1135h-80l118 667h-724l-118 -667h-80l200 1135h-83l14 79h83l35 200h80l-35 -200h724l35 200h80l-35 -200h83l-14 -79h-83zM374 1135l-68 -388h724l68 388h-724z" />
<glyph unicode="&#x127;" horiz-adv-x="839" d="M298 1213l35 201h80l-35 -201h194l-14 -79h-194l-55 -311q117 97 259 97q153 0 232.5 -96.5t56.5 -242.5l-102 -581h-80l101 573q20 111 -46.5 189t-175.5 78q-110 0 -202 -77q-43 -35 -66 -73l-122 -690h-80l200 1134h-100l14 79h100z" />
<glyph unicode="&#x128;" horiz-adv-x="324" d="M452 1414l-249 -1414h-80l249 1414h80zM481 1753q52 -43 75 -43h4q19 7 31 32q7 14 13 49l64 -13q-9 -37 -21 -61q-28 -55 -75 -74q-13 -4 -26 -4q-41 0 -97 45q-51 44 -74 44q-3 0 -4 -1q-19 -6 -31 -32q-8 -14 -14 -49l-62 14q7 37 19 60q28 55 76 74q12 5 26 5 q41 0 96 -46z" />
<glyph unicode="&#x129;" horiz-adv-x="369" d="M377 868l-153 -868h-79l153 868h79zM407 1207q51 -43 74 -43h4q19 7 32 32q6 14 13 49l63 -13q-8 -37 -21 -61q-27 -55 -75 -74q-12 -4 -25 -4q-41 0 -97 45q-52 44 -75 44q-3 0 -4 -1q-18 -6 -30 -32q-8 -14 -14 -49l-63 14q8 37 20 60q28 55 76 74q12 5 26 5 q41 0 96 -46z" />
<glyph unicode="&#x12a;" horiz-adv-x="324" d="M452 1414l-249 -1414h-80l249 1414h80zM207 1730h521l-11 -62h-521z" />
<glyph unicode="&#x12b;" horiz-adv-x="369" d="M377 868l-153 -868h-79l153 868h79zM133 1184h521l-11 -62h-521z" />
<glyph unicode="&#x12c;" horiz-adv-x="324" d="M452 1414l-249 -1414h-80l249 1414h80zM342 1828q-1 -47 27 -80q35 -43 96 -43q59 0 108 43q41 33 55 80h64q-20 -73 -82 -126q-71 -61 -157 -61q-88 0 -137 61q-47 58 -39 126h65z" />
<glyph unicode="&#x12d;" horiz-adv-x="369" d="M377 868l-153 -868h-79l153 868h79zM268 1282q-1 -47 27 -80q34 -43 95 -43q59 0 109 43q41 33 55 80h64q-20 -73 -82 -126q-71 -61 -157 -61q-88 0 -137 61q-47 58 -39 126h65z" />
<glyph unicode="&#x12e;" horiz-adv-x="324" d="M124 34l243 1380h80l-249 -1414h-59q-57 -18 -86 -40q-34 -25 -42 -62l-1 -6q-6 -33 11 -59q20 -28 53 -30q3 -1 6 -1q31 0 70 23l9 -48l-5 -3q-37 -28 -83 -28h-12q-56 4 -87 49q-28 41 -19 93q1 7 4 14q15 61 67 100q44 32 89 32h11z" />
<glyph unicode="&#x12f;" horiz-adv-x="297" d="M403.5 1152q19.5 -23 13.5 -55q-6 -34 -33.5 -57t-59.5 -23q-33 0 -52.5 23t-13.5 57q6 32 33.5 55t60.5 23q32 0 51.5 -23zM110 31l148 837h79l-153 -868h-19q-57 -18 -86 -40q-34 -25 -42 -62l-1 -6q-6 -33 11 -59q20 -28 53 -30q3 -1 6 -1q31 0 70 23l9 -48l-5 -3 q-37 -28 -83 -28h-12q-56 4 -87 49q-28 41 -19 93q1 7 4 14q15 61 67 100q30 22 60 29z" />
<glyph unicode="&#x130;" horiz-adv-x="324" d="M452 1414l-249 -1414h-80l249 1414h80zM528.5 1807.5q16.5 -19.5 11.5 -47.5t-28 -47.5t-50 -19.5q-28 0 -45 19.5t-12 47.5t28.5 47.5t51.5 19.5q27 0 43.5 -19.5z" />
<glyph unicode="&#x131;" horiz-adv-x="369" d="M377 868l-153 -868h-79l153 868h79z" />
<glyph unicode="&#x132;" horiz-adv-x="630" d="M451 1414l-249 -1414h-80l249 1414h80zM511 -27q-19 -108 -105 -181.5t-193 -73.5l14 80q73 0 133 50q58 49 73 135l252 1431h80z" />
<glyph unicode="&#x133;" horiz-adv-x="601" d="M351 868l-153 -868h-79l153 868h79zM417.5 1152q19.5 -23 13.5 -55q-6 -34 -33.5 -57t-59.5 -23q-33 0 -52.5 23t-13.5 57q6 32 33.5 55t60.5 23q32 0 51.5 -23zM284 -122q110 12 129 120l153 870h79l-153 -868q-33 -186 -221 -201zM711.5 1152q19.5 -23 13.5 -55 q-6 -34 -33.5 -57t-59.5 -23q-33 0 -52.5 23t-13.5 57q6 32 33.5 55t60.5 23q32 0 51.5 -23z" />
<glyph unicode="&#x134;" horiz-adv-x="306" d="M187 -27q-19 -108 -105 -181.5t-193 -73.5l14 80q73 0 133 50q58 49 73 135l252 1431h80zM528 1816l174 -207h-92l-142 126l-178 -126h-93l239 207h92z" />
<glyph unicode="&#x135;" horiz-adv-x="265" d="M-32 -122q109 12 128 120l153 870h79l-153 -868q-32 -186 -221 -201zM270 1063l-166 207h93l133 -126l187 126h92l-247 -207h-92z" />
<glyph unicode="&#x138;" horiz-adv-x="717" d="M731 868l-261 -265l235 -603h-98l-200 539l-212 -196l-60 -343h-80l153 868h80l-70 -398l411 398h102z" />
<glyph unicode="&#x139;" horiz-adv-x="783" d="M112 0l249 1414h80l-235 -1334h539l-14 -80h-619zM930 1783l-246 -165h-74l173 165h147z" />
<glyph unicode="&#x13a;" horiz-adv-x="300" d="M440 1414l-249 -1414h-80l249 1414h80zM607 1766l-246 -165h-74l173 165h147z" />
<glyph unicode="&#x13d;" horiz-adv-x="783" d="M112 0l249 1414h80l-235 -1334h539l-14 -80h-619zM813 1268q-20 4 -32 20q-20 23 -14 57q6 33 33.5 55.5t60.5 22.5q32 0 51.5 -22.5t13.5 -55.5q-3 -19 -12 -35l-118 -175h-57z" />
<glyph unicode="&#x13e;" horiz-adv-x="439" d="M441 1414l-249 -1414h-80l249 1414h80zM563 1268q-20 4 -32 20q-20 23 -14 57q6 33 33.5 55.5t60.5 22.5q32 0 51.5 -22.5t13.5 -55.5q-3 -19 -12 -35l-118 -175h-57z" />
<glyph unicode="&#x13f;" horiz-adv-x="783" d="M112 0l249 1414h80l-235 -1334h539l-14 -80h-619zM804 754.5q17 -19.5 12 -47.5t-28.5 -47.5t-50.5 -19.5q-28 0 -44.5 19.5t-11.5 47.5t28 47.5t51 19.5q27 0 44 -19.5z" />
<glyph unicode="&#x140;" horiz-adv-x="440" d="M428 1414l-249 -1414h-80l249 1414h80zM527 754.5q17 -19.5 12 -47.5t-28.5 -47.5t-50.5 -19.5q-28 0 -44.5 19.5t-11.5 47.5t28 47.5t51 19.5q27 0 44 -19.5z" />
<glyph unicode="&#x141;" horiz-adv-x="871" d="M405 696l460 327l-17 -94l-459 -327l-92 -522h539l-15 -80h-619l95 536l-231 -164l17 94l230 164l139 784h80z" />
<glyph unicode="&#x142;" horiz-adv-x="376" d="M274 712l124 702h80l-113 -637l170 121l-17 -94l-169 -121l-121 -683h-80l109 618l-169 -121l17 94z" />
<glyph unicode="&#x143;" horiz-adv-x="1339" d="M459 1414l708 -1317l232 1317h80l-249 -1414h-123l-691 1286l-227 -1286h-80l249 1414h101zM1164 1703l-246 -165h-74l173 165h147z" />
<glyph unicode="&#x144;" horiz-adv-x="879" d="M298 674l-119 -674h-80l153 868h80l-10 -56q127 108 271 108q154 0 233.5 -96.5t55.5 -242.5l-102 -581h-79l101 573q20 111 -46.5 189t-176.5 78q-109 0 -202 -77q-51 -43 -79 -89zM852 1237l-246 -165h-74l173 165h147z" />
<glyph unicode="&#x147;" horiz-adv-x="1339" d="M459 1414l708 -1317l232 1317h80l-249 -1414h-123l-691 1286l-227 -1286h-80l249 1414h101zM889 1529l-166 207h93l133 -126l187 126h92l-247 -207h-92z" />
<glyph unicode="&#x148;" horiz-adv-x="879" d="M298 674l-119 -674h-80l153 868h80l-10 -56q127 108 271 108q154 0 233.5 -96.5t55.5 -242.5l-102 -581h-79l101 573q20 111 -46.5 189t-176.5 78q-109 0 -202 -77q-51 -43 -79 -89zM576 1063l-165 207h93l133 -126l187 126h92l-248 -207h-92z" />
<glyph unicode="&#x14a;" horiz-adv-x="1163" d="M989 84l-591 1102l-209 -1186h-80l253 1436l651 -1213l210 1191h80l-258 -1464q-19 -108 -105 -181.5t-193 -73.5l14 80q73 0 133 50q58 49 73 135z" />
<glyph unicode="&#x14b;" horiz-adv-x="885" d="M805 573q20 111 -46.5 189t-176.5 78q-109 0 -202 -77q-51 -43 -79 -89l-119 -674h-80l153 868h80l-10 -56q127 108 271 108q154 0 233.5 -96.5t55.5 -242.5l-81 -460h1l-30 -171q-19 -108 -105 -181.5t-193 -73.5l14 80q73 0 133 50q58 49 73 135z" />
<glyph unicode="&#x14c;" horiz-adv-x="1575" d="M1516 1221.5q175 -212.5 122 -512.5q-53 -301 -303 -513.5t-551 -212.5q-300 0 -475 212.5t-122 513.5q53 300 303 512.5t550 212.5q301 0 476 -212.5zM1026 1353q-266 0 -488.5 -189t-269.5 -455q-47 -267 108.5 -456t421.5 -189q267 0 489.5 189t269.5 456 q47 266 -108.5 455t-422.5 189zM832 1730h521l-11 -62h-521z" />
<glyph unicode="&#x14d;" horiz-adv-x="1114" d="M724 946q202 0 318.5 -142t80.5 -344q-35 -200 -201.5 -342.5t-368.5 -142.5q-200 0 -317.5 142.5t-82.5 342.5q36 202 203.5 344t367.5 142zM405 744q-138 -118 -168 -284q-29 -166 68 -283t263 -117t304 117t167 283q30 166 -67 284t-263 118t-304 -118zM506 1184h521 l-11 -62h-521z" />
<glyph unicode="&#x14e;" horiz-adv-x="1575" d="M1516 1221.5q175 -212.5 122 -512.5q-53 -301 -303 -513.5t-551 -212.5q-300 0 -475 212.5t-122 513.5q53 300 303 512.5t550 212.5q301 0 476 -212.5zM1026 1353q-266 0 -488.5 -189t-269.5 -455q-47 -267 108.5 -456t421.5 -189q267 0 489.5 189t269.5 456 q47 266 -108.5 455t-422.5 189zM967 1828q-1 -47 27 -80q35 -43 96 -43q59 0 108 43q41 33 55 80h64q-19 -73 -82 -126q-71 -61 -157 -61q-88 0 -137 61q-47 58 -39 126h65z" />
<glyph unicode="&#x14f;" horiz-adv-x="1114" d="M724 946q202 0 318.5 -142t80.5 -344q-35 -200 -201.5 -342.5t-368.5 -142.5q-200 0 -317.5 142.5t-82.5 342.5q36 202 203.5 344t367.5 142zM405 744q-138 -118 -168 -284q-29 -166 68 -283t263 -117t304 117t167 283q30 166 -67 284t-263 118t-304 -118zM641 1282 q-1 -47 27 -80q35 -43 96 -43q59 0 108 43q41 33 55 80h64q-20 -73 -82 -126q-71 -61 -157 -61q-88 0 -137 61q-47 58 -39 126h65z" />
<glyph unicode="&#x150;" horiz-adv-x="1575" d="M1516 1221.5q175 -212.5 122 -512.5q-53 -301 -303 -513.5t-551 -212.5q-300 0 -475 212.5t-122 513.5q53 300 303 512.5t550 212.5q301 0 476 -212.5zM1026 1353q-266 0 -488.5 -189t-269.5 -455q-47 -267 108.5 -456t421.5 -189q267 0 489.5 189t269.5 456 q47 266 -108.5 455t-422.5 189zM1243 1766l-246 -165h-74l173 165h147zM1445 1766l-245 -165h-75l173 165h147z" />
<glyph unicode="&#x151;" horiz-adv-x="1114" d="M724 946q202 0 318.5 -142t80.5 -344q-35 -200 -201.5 -342.5t-368.5 -142.5q-200 0 -317.5 142.5t-82.5 342.5q36 202 203.5 344t367.5 142zM405 744q-138 -118 -168 -284q-29 -166 68 -283t263 -117t304 117t167 283q30 166 -67 284t-263 118t-304 -118zM917 1220 l-246 -165h-74l173 165h147zM1119 1220l-245 -165h-75l173 165h147z" />
<glyph unicode="&#x152;" horiz-adv-x="2014" d="M1419 1334q68 -46 124 -112q163 -200 127 -475h388l-14 -80h-388q-63 -274 -294 -471q-83 -70 -170 -116h748l-14 -80h-884q-110 -17 -232 -17q-300 0 -475 212.5t-122 513.5q53 300 303 512.5t550 212.5q122 0 225 -20h884l-14 -80h-742zM1589 747q29 242 -115 418 q-57 68 -127 111q-35 21 -73 37q-99 40 -222 40q-266 0 -488.5 -189t-269.5 -455q-47 -267 108.5 -456t421.5 -189q123 0 236 39q44 16 87 37q86 44 167 113q204 174 261 414q4 20 8 42z" />
<glyph unicode="&#x153;" horiz-adv-x="1826" d="M231 460q-29 -166 68 -283t263 -117t304 117t167 283q30 166 -67 284t-263 118t-304 -118t-168 -284zM1102 688q18 -48 22 -102h670q-11 91 -67 158q-97 118 -263 118t-305 -118q-30 -27 -57 -56zM1022 232q16 -28 38 -54q97 -118 263 -118t305 118q23 20 45 42l79 -30 q-20 -25 -75 -72q-168 -143 -369 -143t-318 143q-17 20 -30 41q-22 -21 -44 -41q-167 -143 -369 -143q-200 0 -317.5 142.5t-82.5 342.5q36 202 203.5 344t367.5 142q202 0 319 -142q15 -20 30 -41q20 21 44 41q167 142 368 142t319 -142q103 -126 77 -299l-752 1 q-2 -23 -6 -46q-22 -125 -95 -228z" />
<glyph unicode="&#x154;" horiz-adv-x="959" d="M427 1333l-134 -762h240q157 0 288.5 111.5t159.5 270.5q28 158 -64.5 269t-249.5 111h-240zM543 491q-13 -1 -25 -1h-240l-86 -490h-80l249 1414h371q158 -22 252 -135q111 -136 77 -326q-34 -192 -193 -327q-110 -94 -236 -123l237 -503h-98zM1011 1783l-246 -165h-74 l173 165h147z" />
<glyph unicode="&#x155;" horiz-adv-x="406" d="M547 798q-68 -13 -147 -81q-132 -112 -164 -269l-79 -448h-80l153 868h80l-28 -158q30 35 69 68q86 73 165 97zM654 1237l-246 -165h-74l173 165h147z" />
<glyph unicode="&#x158;" horiz-adv-x="959" d="M427 1333l-134 -762h240q157 0 288.5 111.5t159.5 270.5q28 158 -64.5 269t-249.5 111h-240zM543 491q-13 -1 -25 -1h-240l-86 -490h-80l249 1414h371q158 -22 252 -135q111 -136 77 -326q-34 -192 -193 -327q-110 -94 -236 -123l237 -503h-98zM736 1609l-166 207h93 l133 -126l187 126h92l-247 -207h-92z" />
<glyph unicode="&#x159;" horiz-adv-x="406" d="M547 798q-68 -13 -147 -81q-132 -112 -164 -269l-79 -448h-80l153 868h80l-28 -158q30 35 69 68q86 73 165 97zM378 1063l-165 207h93l133 -126l187 126h92l-248 -207h-92z" />
<glyph unicode="&#x15a;" horiz-adv-x="942" d="M633 783q-142 50 -214 137.5t-50 212.5q21 122 124 210t228 88q123 0 197 -88q39 -47 48 -105l-77 -28q-8 43 -38 79q-53 64 -144 64t-166.5 -64t-91.5 -156q-16 -91 36 -156q50 -59 147 -108q160 -55 256 -171q100 -122 70 -295q-31 -174 -175 -297t-317 -123 q-174 0 -274 124q-82 98 -78 228l80 27q-9 -115 62 -200q83 -100 224 -100t258.5 100t142.5 241q25 140 -58 240q-72 88 -190 140zM979 1783l-246 -165h-74l173 165h147z" />
<glyph unicode="&#x15b;" horiz-adv-x="644" d="M406 466q-92 55 -124 94q-50 61 -35 147t87 147.5t158 61.5t133 -57q45 -55 33 -126l-1 -4l-74 -28q3 67 -24 101t-81 34q-53 0 -97.5 -38t-54.5 -91q-9 -53 22 -91q18 -23 81 -68q102 -61 142 -109q62 -76 43 -181q-19 -108 -107.5 -183.5t-195.5 -75.5t-168.5 75.5 t-45.5 165.5l82 20q-13 -77 30 -129.5t116 -52.5t135.5 52.5t75.5 127.5q13 73 -31 125q-23 28 -99 83zM724 1237l-246 -165h-74l173 165h147z" />
<glyph unicode="&#x15c;" horiz-adv-x="942" d="M633 783q-142 50 -214 137.5t-50 212.5q21 122 124 210t228 88q123 0 197 -88q39 -47 48 -105l-77 -28q-8 43 -38 79q-53 64 -144 64t-166.5 -64t-91.5 -156q-16 -91 36 -156q50 -59 147 -108q160 -55 256 -171q100 -122 70 -295q-31 -174 -175 -297t-317 -123 q-174 0 -274 124q-82 98 -78 228l80 27q-9 -115 62 -200q83 -100 224 -100t258.5 100t142.5 241q25 140 -58 240q-72 88 -190 140zM833 1816l175 -207h-92l-143 126l-177 -126h-93l238 207h92z" />
<glyph unicode="&#x15d;" horiz-adv-x="644" d="M406 466q-92 55 -124 94q-50 61 -35 147t87 147.5t158 61.5t133 -57q45 -55 33 -126l-1 -4l-74 -28q3 67 -24 101t-81 34q-53 0 -97.5 -38t-54.5 -91q-9 -53 22 -91q18 -23 81 -68q102 -61 142 -109q62 -76 43 -181q-19 -108 -107.5 -183.5t-195.5 -75.5t-168.5 75.5 t-45.5 165.5l82 20q-13 -77 30 -129.5t116 -52.5t135.5 52.5t75.5 127.5q13 73 -31 125q-23 28 -99 83zM577 1270l175 -207h-92l-143 126l-177 -126h-93l238 207h92z" />
<glyph unicode="&#x15e;" horiz-adv-x="942" d="M392 -11q-122 22 -200 118q-82 98 -78 228l80 27q-9 -115 62 -200q83 -100 224 -100t258.5 100t142.5 241q25 140 -58 240q-72 88 -190 140q-142 50 -214 137.5t-50 212.5q21 122 124 210t228 88q123 0 197 -88q39 -47 48 -105l-77 -28q-8 43 -38 79q-53 64 -144 64 t-166.5 -64t-91.5 -156q-16 -91 36 -156q50 -59 147 -108q160 -55 256 -171q100 -122 70 -295q-31 -174 -175 -297t-317 -123h-5l-41 -39q33 6 59 6q51 0 76 -23q35 -31 27 -74l-2 -9q-13 -49 -77 -90q-53 -28 -108 -28q-31 0 -64 9l26 51q26 -11 53 -11q31 0 63 15 q28 18 37 43q2 5 3 11q4 18 -8 32q-15 17 -46 18h-4q-29 0 -48 -6q-20 -7 -63 -33l-29 34z" />
<glyph unicode="&#x15f;" horiz-adv-x="644" d="M246 7q-62 17 -103 68q-62 75 -46 165l82 20q-13 -77 30 -129.5t116 -52.5t135.5 52.5t75.5 127.5q13 73 -31 125q-23 28 -99 83q-92 55 -124 94q-50 61 -35 147t87 147.5t158 61.5t133 -57q45 -55 33 -126l-1 -4l-74 -28q3 67 -24 101t-81 34q-53 0 -97.5 -38t-54.5 -91 q-9 -53 22 -91q18 -23 81 -68q102 -61 142 -109q62 -76 43 -181q-19 -108 -107 -183q-85 -73 -189 -76l-57 -55q33 6 59 6q51 0 76 -23q34 -31 27 -74l-2 -9q-14 -49 -77 -90q-54 -28 -109 -28q-31 0 -63 9l26 51q26 -11 53 -11q31 0 63 15q28 18 37 43q2 5 3 11q3 18 -8 32 q-15 17 -46 18h-4q-29 0 -48 -6q-20 -7 -63 -33l-29 34z" />
<glyph unicode="&#x160;" horiz-adv-x="942" d="M633 783q-142 50 -214 137.5t-50 212.5q21 122 124 210t228 88q123 0 197 -88q39 -47 48 -105l-77 -28q-8 43 -38 79q-53 64 -144 64t-166.5 -64t-91.5 -156q-16 -91 36 -156q50 -59 147 -108q160 -55 256 -171q100 -122 70 -295q-31 -174 -175 -297t-317 -123 q-174 0 -274 124q-82 98 -78 228l80 27q-9 -115 62 -200q83 -100 224 -100t258.5 100t142.5 241q25 140 -58 240q-72 88 -190 140zM705 1609l-166 207h93l133 -126l187 126h92l-247 -207h-92z" />
<glyph unicode="&#x161;" horiz-adv-x="644" d="M406 466q-92 55 -124 94q-50 61 -35 147t87 147.5t158 61.5t133 -57q45 -55 33 -126l-1 -4l-74 -28q3 67 -24 101t-81 34q-53 0 -97.5 -38t-54.5 -91q-9 -53 22 -91q18 -23 81 -68q102 -61 142 -109q62 -76 43 -181q-19 -108 -107.5 -183.5t-195.5 -75.5t-168.5 75.5 t-45.5 165.5l82 20q-13 -77 30 -129.5t116 -52.5t135.5 52.5t75.5 127.5q13 73 -31 125q-23 28 -99 83zM449 1063l-166 207h93l133 -126l187 126h92l-247 -207h-92z" />
<glyph unicode="&#x164;" horiz-adv-x="859" d="M704 1334l-235 -1334h-79l235 1334h-358l14 80h795l-14 -80h-358zM662 1609l-165 207h93l133 -126l187 126h92l-248 -207h-92z" />
<glyph unicode="&#x165;" horiz-adv-x="564" d="M362 868l65 369h79l-65 -369h177l-14 -80h-177l-139 -788h-79l139 788h-177l14 80h177zM683 1239q-20 4 -32 20q-20 23 -14 57q6 33 33.5 55.5t60.5 22.5q32 0 51.5 -22.5t13.5 -55.5q-3 -19 -12 -35l-118 -175h-57z" />
<glyph unicode="&#x166;" horiz-adv-x="859" d="M523 747l103 587h-358l15 80h795l-15 -80h-358l-103 -587h260l-14 -79h-260l-118 -668h-79l118 668h-261l14 79h261z" />
<glyph unicode="&#x167;" horiz-adv-x="497" d="M349 788h-177l14 80h177l65 369h79l-65 -369h177l-14 -80h-177l-42 -239h177l-14 -80h-177l-83 -469h-79l83 469h-177l14 80h177z" />
<glyph unicode="&#x168;" horiz-adv-x="1147" d="M1204 1414h80l-179 -1016q-51 -162 -184 -275q-159 -135 -350 -135q-192 0 -303 135t-77 326l170 965h80l-170 -965q-28 -157 64 -269t250 -112t289.5 112t159.5 269zM892 1753q51 -43 74 -43h4q19 7 32 32q6 14 12 49l64 -13q-9 -37 -21 -61q-27 -55 -75 -74 q-12 -4 -25 -4q-41 0 -98 45q-51 44 -74 44q-3 0 -4 -1q-18 -6 -31 -32q-7 -14 -13 -49l-63 14q8 37 20 60q27 55 76 74q12 5 26 5q41 0 96 -46z" />
<glyph unicode="&#x169;" horiz-adv-x="880" d="M443 -12q-163 0 -242 96t-56 243l95 542h80l-94 -535q-19 -110 47 -188q65 -79 183 -79q110 0 203.5 78.5t112.5 188.5l94 535h80l-95 -542q-29 -147 -142 -243t-266 -96zM663 1207q52 -43 75 -43h4q19 7 31 32q7 14 13 49l63 -13q-8 -37 -20 -61q-28 -55 -75 -74 q-13 -4 -26 -4q-41 0 -97 45q-51 44 -74 44q-3 0 -4 -1q-19 -6 -31 -32q-8 -14 -14 -49l-62 14q7 37 19 60q28 55 76 74q12 5 26 5q41 0 96 -46z" />
<glyph unicode="&#x16a;" horiz-adv-x="1147" d="M1204 1414h80l-179 -1016q-51 -162 -184 -275q-159 -135 -350 -135q-192 0 -303 135t-77 326l170 965h80l-170 -965q-28 -157 64 -269t250 -112t289.5 112t159.5 269zM618 1730h521l-11 -62h-521z" />
<glyph unicode="&#x16b;" horiz-adv-x="880" d="M443 -12q-163 0 -242 96t-56 243l95 542h80l-94 -535q-19 -110 47 -188q65 -79 183 -79q110 0 203.5 78.5t112.5 188.5l94 535h80l-95 -542q-29 -147 -142 -243t-266 -96zM389 1184h521l-11 -62h-521z" />
<glyph unicode="&#x16c;" horiz-adv-x="1147" d="M1204 1414h80l-179 -1016q-51 -162 -184 -275q-159 -135 -350 -135q-192 0 -303 135t-77 326l170 965h80l-170 -965q-28 -157 64 -269t250 -112t289.5 112t159.5 269zM753 1828q-1 -47 27 -80q34 -43 95 -43q59 0 109 43q41 33 55 80h64q-20 -73 -82 -126 q-71 -61 -157 -61q-88 0 -137 61q-47 58 -39 126h65z" />
<glyph unicode="&#x16d;" horiz-adv-x="880" d="M443 -12q-163 0 -242 96t-56 243l95 542h80l-94 -535q-19 -110 47 -188q65 -79 183 -79q110 0 203.5 78.5t112.5 188.5l94 535h80l-95 -542q-29 -147 -142 -243t-266 -96zM524 1282q-1 -47 27 -80q35 -43 96 -43q59 0 108 43q41 33 55 80h64q-20 -73 -82 -126 q-71 -61 -157 -61q-88 0 -137 61q-47 58 -39 126h65z" />
<glyph unicode="&#x16e;" horiz-adv-x="1147" d="M1204 1414h80l-179 -1016q-51 -162 -184 -275q-159 -135 -350 -135q-192 0 -303 135t-77 326l170 965h80l-170 -965q-28 -157 64 -269t250 -112t289.5 112t159.5 269zM964 1779q26 -32 18 -77q-8 -44 -45 -75.5t-82 -31.5t-71.5 31.5t-18.5 75.5q8 45 45.5 77t82.5 32 t71 -32zM883 1754q-22 0 -40 -15t-21 -37q-4 -20 8.5 -35t34.5 -15q20 0 37.5 15t21.5 35q3 22 -9 37t-32 15z" />
<glyph unicode="&#x16f;" horiz-adv-x="880" d="M443 -12q-163 0 -242 96t-56 243l95 542h80l-94 -535q-19 -110 47 -188q65 -79 183 -79q110 0 203.5 78.5t112.5 188.5l94 535h80l-95 -542q-29 -147 -142 -243t-266 -96zM735 1233q26 -32 18 -77q-8 -44 -45 -75.5t-82 -31.5t-71.5 31.5t-18.5 75.5q8 45 45.5 77 t82.5 32t71 -32zM654 1208q-22 0 -39.5 -15t-21.5 -37q-3 -20 9 -35t34 -15q20 0 38 15t21 35q4 22 -8.5 37t-32.5 15z" />
<glyph unicode="&#x170;" horiz-adv-x="1147" d="M1204 1414h80l-179 -1016q-51 -162 -184 -275q-159 -135 -350 -135q-192 0 -303 135t-77 326l170 965h80l-170 -965q-28 -157 64 -269t250 -112t289.5 112t159.5 269zM939 1766l-246 -165h-74l173 165h147zM1141 1766l-245 -165h-75l173 165h147z" />
<glyph unicode="&#x171;" horiz-adv-x="880" d="M443 -12q-163 0 -242 96t-56 243l95 542h80l-94 -535q-19 -110 47 -188q65 -79 183 -79q110 0 203.5 78.5t112.5 188.5l94 535h80l-95 -542q-29 -147 -142 -243t-266 -96zM710 1220l-246 -165h-74l173 165h147zM912 1220l-245 -165h-75l173 165h147z" />
<glyph unicode="&#x172;" horiz-adv-x="1147" d="M677 -1q-52 -11 -106 -11q-192 0 -303 135t-77 326l170 965h80l-170 -965q-28 -157 64 -269t250 -112t289.5 112t159.5 269l170 965h80l-179 -1016q-51 -162 -184 -275q-81 -69 -171 -103q-21 -23 -26 -49q-1 -8 -1 -15v-6q0 -32 23 -54q21 -19 49 -19q5 0 10 1h6 q32 6 67 35l19 -43l-5 -4q-32 -34 -79 -42l-12 -3q-9 -1 -17 -1q-46 0 -81 31q-37 33 -38 84q0 7 2 14q0 10 2 19q3 16 8 31z" />
<glyph unicode="&#x173;" horiz-adv-x="880" d="M476 -11q-16 -1 -33 -1q-163 0 -242 96t-56 243l95 542h80l-94 -535q-19 -110 47 -188q65 -79 183 -79q110 0 203.5 78.5t112.5 188.5l94 535h80l-95 -542q-29 -147 -142 -243q-75 -64 -170 -86q-12 -17 -16 -37q-1 -7 -1 -15v-6q0 -32 23 -54q21 -19 49 -19q5 0 10 1h6 q32 6 67 35l19 -43l-5 -4q-32 -34 -79 -42l-12 -3q-9 -1 -17 -1q-46 0 -81 31q-37 33 -38 84q0 7 2 14q0 10 2 19q3 16 8 31z" />
<glyph unicode="&#x174;" horiz-adv-x="1642" d="M1040 999l197 -870l571 1285h83l-628 -1414h-81l-204 894l-518 -894h-82l-129 1414h82l116 -1285h1l504 870h88zM1169 1736l174 -207h-92l-143 126l-177 -126h-93l239 207h92z" />
<glyph unicode="&#x175;" horiz-adv-x="1094" d="M245 868l90 -743l286 595h105l72 -595l358 743h91l-420 -868h-102l-75 592l-286 -592h-102l-109 868h92zM813 1270l174 -207h-92l-142 126l-178 -126h-93l239 207h92z" />
<glyph unicode="&#x176;" horiz-adv-x="1116" d="M619 572l-338 842h91l302 -754l568 754h91l-634 -842l-101 -572h-80zM920 1816l174 -207h-92l-142 126l-178 -126h-93l239 207h92z" />
<glyph unicode="&#x177;" horiz-adv-x="779" d="M463 163l-316 -493h-89l316 491l-206 707h89l178 -606l393 606h89l-453 -705h-1zM655 1270l175 -207h-92l-143 126l-177 -126h-93l238 207h92z" />
<glyph unicode="&#x178;" horiz-adv-x="1116" d="M619 572l-338 842h91l302 -754l568 754h91l-634 -842l-101 -572h-80zM803.5 1828q19.5 -23 13.5 -55q-6 -34 -33.5 -57t-59.5 -23q-33 0 -52.5 23t-13.5 57q6 32 33.5 55t60.5 23q32 0 51.5 -23zM1068.5 1828q19.5 -23 13.5 -55q-6 -34 -33.5 -57t-59.5 -23 q-33 0 -52.5 23t-13.5 57q6 32 33.5 55t60.5 23q32 0 51.5 -23z" />
<glyph unicode="&#x179;" horiz-adv-x="1075" d="M1089 1334h-770l14 80h907l-1006 -1334h771l-14 -80h-907zM1046 1783l-246 -165h-74l173 165h147z" />
<glyph unicode="&#x17a;" horiz-adv-x="743" d="M647 776h-448l14 79h585l-60 -79l-526 -696h483l-14 -80h-619l60 80zM784 1237l-246 -165h-74l173 165h147z" />
<glyph unicode="&#x17b;" horiz-adv-x="1075" d="M1089 1334h-770l14 80h907l-1006 -1334h771l-14 -80h-907zM903.5 1807.5q16.5 -19.5 11.5 -47.5t-28 -47.5t-50 -19.5q-28 0 -45 19.5t-12 47.5t28.5 47.5t51.5 19.5q27 0 43.5 -19.5z" />
<glyph unicode="&#x17c;" horiz-adv-x="743" d="M647 776h-448l14 79h585l-60 -79l-526 -696h483l-14 -80h-619l60 80zM641.5 1261.5q16.5 -19.5 11.5 -47.5t-28.5 -47.5t-50.5 -19.5q-28 0 -44.5 19.5t-11.5 47.5t28.5 47.5t51.5 19.5q27 0 43.5 -19.5z" />
<glyph unicode="&#x17d;" horiz-adv-x="1075" d="M1089 1334h-770l14 80h907l-1006 -1334h771l-14 -80h-907zM771 1609l-166 207h93l133 -126l187 126h92l-247 -207h-92z" />
<glyph unicode="&#x17e;" horiz-adv-x="743" d="M647 776h-448l14 79h585l-60 -79l-526 -696h483l-14 -80h-619l60 80zM508 1063l-165 207h93l133 -126l187 126h92l-248 -207h-92z" />
<glyph unicode="&#x1fc;" horiz-adv-x="1442" d="M1519 747l-14 -80h-627l-104 -587h627l-14 -80h-706l96 542h-300l-337 -542h-85l864 1414h717l-14 -80h-627l-103 -587h627zM790 621l111 629l-382 -629h271zM1229 1783l-246 -165h-74l173 165h147z" />
<glyph unicode="&#x1fd;" horiz-adv-x="1873" d="M1027 653q-18 49 -53 91q-97 118 -263 118t-304 -118t-168 -284q-29 -166 68 -283t263 -117t305 118q49 42 84 90q40 53 62 114l27 157q0 61 -21 114zM1841 586q-11 91 -68 158q-96 118 -262 118t-305 -118q-28 -24 -50 -49l-20 -109h705zM1073 226q14 -25 34 -48 q97 -118 263 -118t304 118q24 20 45 42l80 -30q-20 -25 -76 -72q-167 -143 -368 -143q-189 0 -304 127l-18 -102h-80l31 177q-28 -31 -60 -59q-167 -143 -369 -143q-200 0 -317.5 142.5t-82.5 342.5q36 202 203.5 344t367.5 142q202 0 319 -142q22 -28 40 -59l21 123h80 l-8 -48q159 126 348 126q201 0 318 -142q104 -126 78 -299l-800 1zM1366 1237l-246 -165h-74l173 165h147z" />
<glyph unicode="&#x1fe;" horiz-adv-x="1647" d="M1290 1310q-100 43 -228 43q-266 0 -488.5 -189t-269.5 -455q-47 -267 109 -456q56 -68 127 -113zM606 107q101 -43 228 -43q267 0 489.5 189t269.5 456q47 266 -109 456q-57 68 -127 111zM1404 1350q82 -49 149 -128q174 -213 121 -513q-53 -301 -303 -513.5 t-551 -212.5q-145 0 -261 51l-105 -163l-66 34l105 162q-82 50 -147 129q-176 212 -123 513q53 300 303 512.5t550 212.5q146 0 262 -50l105 162l66 -33zM1332 1783l-246 -165h-74l173 165h147z" />
<glyph unicode="&#x1ff;" horiz-adv-x="1080" d="M852 828q-70 34 -160 34q-166 0 -304 -117.5t-168 -283.5q-29 -166 67 -283q20 -24 44 -43zM913 787l-522 -692q70 -34 160 -34q166 0 304 117t167 283q30 166 -67 284q-19 24 -42 42zM275 62q-31 25 -57 56q-117 143 -82 343q36 202 203.5 344t367.5 142q114 0 202 -46 l140 188l63 -37l-143 -190q31 -25 57 -57q116 -142 80 -344q-35 -200 -201.5 -342.5t-368.5 -142.5q-114 0 -200 46l-142 -188l-64 33zM952 1237l-246 -165h-74l173 165h147z" />
<glyph unicode="&#x2c6;" horiz-adv-x="655" d="M592 1270l175 -207h-92l-143 126l-177 -126h-93l238 207h92z" />
<glyph unicode="&#x2c7;" horiz-adv-x="655" d="M465 1063l-166 207h93l133 -126l187 126h92l-247 -207h-92z" />
<glyph unicode="&#x2c9;" horiz-adv-x="671" d="M284 1184h521l-11 -62h-521z" />
<glyph unicode="&#x2d8;" horiz-adv-x="565" d="M366 1282q-1 -47 27 -80q34 -43 95 -43q59 0 109 43q41 33 55 80h64q-20 -73 -82 -126q-71 -61 -157 -61q-88 0 -137 61q-47 58 -39 126h65z" />
<glyph unicode="&#x2d9;" horiz-adv-x="285" d="M412.5 1261.5q16.5 -19.5 11.5 -47.5t-28.5 -47.5t-50.5 -19.5q-28 0 -44.5 19.5t-11.5 47.5t28.5 47.5t51.5 19.5q27 0 43.5 -19.5z" />
<glyph unicode="&#x2da;" horiz-adv-x="367" d="M478 1233q26 -32 18 -77q-8 -44 -45 -75.5t-82 -31.5t-71.5 31.5t-18.5 75.5q8 45 45.5 77t82.5 32t71 -32zM397 1208q-22 0 -39.5 -15t-21.5 -37q-4 -20 8.5 -35t34.5 -15q20 0 37.5 15t21.5 35q4 22 -8.5 37t-32.5 15z" />
<glyph unicode="&#x2db;" horiz-adv-x="434" d="M271 4q-67 -20 -99 -44q-34 -25 -42 -62l-1 -6q-6 -33 11 -59q20 -28 53 -30q3 -1 6 -1q31 0 70 23l9 -48l-5 -3q-37 -28 -83 -28h-12q-56 4 -87 49q-28 41 -19 93q1 7 4 14q15 61 67 100q44 32 89 32q9 0 18 -1z" />
<glyph unicode="&#x2dc;" horiz-adv-x="533" d="M488 1207q52 -43 75 -43h4q19 7 31 32q7 14 13 49l64 -13q-9 -37 -21 -61q-28 -55 -75 -74q-13 -4 -26 -4q-41 0 -97 45q-51 44 -74 44q-3 0 -4 -1q-18 -6 -31 -32q-7 -14 -13 -49l-63 14q8 37 20 60q27 55 76 74q12 5 26 5q41 0 95 -46z" />
<glyph unicode="&#x2dd;" horiz-adv-x="643" d="M581 1220l-246 -165h-74l173 165h147zM783 1220l-245 -165h-75l173 165h147z" />
<glyph unicode="&#x1e80;" horiz-adv-x="1642" d="M1040 999l197 -870l571 1285h83l-628 -1414h-81l-204 894l-518 -894h-82l-129 1414h82l116 -1285h1l504 870h88zM1074 1703l115 -165h-75l-187 165h147z" />
<glyph unicode="&#x1e81;" horiz-adv-x="1094" d="M245 868l90 -743l286 595h105l72 -595l358 743h91l-420 -868h-102l-75 592l-286 -592h-102l-109 868h92zM718 1237l115 -165h-75l-187 165h147z" />
<glyph unicode="&#x1e82;" horiz-adv-x="1642" d="M1040 999l197 -870l571 1285h83l-628 -1414h-81l-204 894l-518 -894h-82l-129 1414h82l116 -1285h1l504 870h88zM1315 1703l-246 -165h-74l173 165h147z" />
<glyph unicode="&#x1e83;" horiz-adv-x="1094" d="M245 868l90 -743l286 595h105l72 -595l358 743h91l-420 -868h-102l-75 592l-286 -592h-102l-109 868h92zM959 1237l-246 -165h-74l173 165h147z" />
<glyph unicode="&#x1e84;" horiz-adv-x="1642" d="M1040 999l197 -870l571 1285h83l-628 -1414h-81l-204 894l-518 -894h-82l-129 1414h82l116 -1285h1l504 870h88zM1052.5 1748q19.5 -23 13.5 -55q-6 -34 -33.5 -57t-59.5 -23q-33 0 -52.5 23t-13.5 57q6 32 33.5 55t60.5 23q32 0 51.5 -23zM1317.5 1748 q19.5 -23 13.5 -55q-6 -34 -33.5 -57t-59.5 -23q-33 0 -52.5 23t-13.5 57q6 32 33.5 55t60.5 23q32 0 51.5 -23z" />
<glyph unicode="&#x1e85;" horiz-adv-x="1094" d="M245 868l90 -743l286 595h105l72 -595l358 743h91l-420 -868h-102l-75 592l-286 -592h-102l-109 868h92zM696.5 1282q19.5 -23 13.5 -55q-6 -34 -33.5 -57t-59.5 -23q-33 0 -52.5 23t-13.5 57q6 32 33.5 55t60.5 23q32 0 51.5 -23zM961.5 1282q19.5 -23 13.5 -55 q-6 -34 -33.5 -57t-59.5 -23q-33 0 -52.5 23t-13.5 57q6 32 33.5 55t60.5 23q32 0 51.5 -23z" />
<glyph unicode="&#x1ef2;" horiz-adv-x="1116" d="M619 572l-338 842h91l302 -754l568 754h91l-634 -842l-101 -572h-80zM825 1783l115 -165h-75l-187 165h147z" />
<glyph unicode="&#x1ef3;" horiz-adv-x="779" d="M463 163l-316 -493h-89l316 491l-206 707h89l178 -606l393 606h89l-453 -705h-1zM561 1237l115 -165h-75l-187 165h147z" />
<glyph unicode="&#x2013;" horiz-adv-x="681" d="M99 563h681l-14 -80h-681z" />
<glyph unicode="&#x2014;" horiz-adv-x="1254" d="M99 563h1254l-14 -80h-1254z" />
<glyph unicode="&#x2015;" horiz-adv-x="3072" d="M99 563h1881l-14 -80h-1881z" />
<glyph unicode="&#x2017;" horiz-adv-x="794" d="M-84 -224h884l-14 -79h-884zM-49 -27h884l-14 -79h-884z" />
<glyph unicode="&#x2018;" horiz-adv-x="255" d="M375 1291q20 -4 33 -20q19 -23 13 -57q-6 -33 -33.5 -56t-59.5 -23q-33 0 -52.5 23t-13.5 56q3 19 12 35l118 174h57z" />
<glyph unicode="&#x2019;" horiz-adv-x="255" d="M330 1268q-19 4 -31 20q-20 23 -14 57q6 33 33.5 55.5t60.5 22.5q32 0 51.5 -22.5t13.5 -55.5q-3 -19 -12 -35l-118 -175h-57z" />
<glyph unicode="&#x201a;" horiz-adv-x="255" d="M105 -11q-19 4 -31 20q-20 23 -14 56t33.5 56t60.5 23q32 0 51.5 -23t13.5 -56q-3 -18 -12 -34l-118 -175h-57z" />
<glyph unicode="&#x201b;" horiz-adv-x="255" d="M398 1135h-57l-56 175q-3 16 0 35q6 33 33.5 55.5t59.5 22.5q33 0 52.5 -22.5t13.5 -55.5q-6 -34 -34 -57q-18 -16 -38 -20z" />
<glyph unicode="&#x201c;" horiz-adv-x="478" d="M375 1291q20 -4 33 -20q19 -23 13 -57q-6 -33 -33.5 -56t-59.5 -23q-33 0 -52.5 23t-13.5 56q3 19 12 35l118 174h57zM598 1291q20 -4 33 -20q19 -23 13 -57q-6 -33 -33.5 -56t-60.5 -23t-52 23t-13 56q3 19 12 35l117 174h58z" />
<glyph unicode="&#x201d;" horiz-adv-x="478" d="M330 1268q-19 4 -31 20q-20 23 -14 57q6 33 33.5 55.5t60.5 22.5q32 0 51.5 -22.5t13.5 -55.5q-3 -19 -12 -35l-118 -175h-57zM553 1268q-19 4 -31 20q-20 23 -14 57q6 33 33 55.5t60 22.5t52.5 -22.5t13.5 -55.5q-3 -19 -12 -35l-118 -175h-57z" />
<glyph unicode="&#x201e;" horiz-adv-x="478" d="M105 -11q-19 4 -31 20q-20 23 -14 57q6 33 33.5 55.5t60.5 22.5q32 0 51.5 -22.5t13.5 -55.5q-3 -19 -12 -35l-118 -175h-57zM328 -11q-19 4 -31 20q-20 23 -14 57q6 33 33 55.5t60 22.5t52.5 -22.5t13.5 -55.5q-3 -19 -12 -35l-118 -175h-57z" />
<glyph unicode="&#x2020;" horiz-adv-x="689" d="M319 1410v193h51v-193h221v-51h-221v-1206h-51v1206h-221v51h221z" />
<glyph unicode="&#x2021;" horiz-adv-x="689" d="M319 1359h-221v51h221v193h51v-193h221v-51h-221v-429h221v-51h-221v-726h-51v726h-221v51h221v429z" />
<glyph unicode="&#x2022;" horiz-adv-x="2620" d="M1041 1359h546l308 -392l-64 -302q126 42 126 134q-20 24 -20 48q0 78 140 78q104 0 210 -140q68 -56 258 -112q0 -28 -20 -28q0 -14 6 -22q-6 -34 -56 -43q-18 -3 -42 -3q-44 0 -108 10q24 -20 136 -20q21 4 37 4t27 -4q0 -54 -204 -84l-126 8q114 -56 190 -56h42v-8 q-52 -70 -190 -70q-70 0 -160 36q0 -44 160 -98q0 -28 -76 -36q-44 0 -190 64q0 -34 70 -92q-5 -3 -17 -3q-36 0 -137 31l22 -62l-28 -8q-38 0 -134 106l-62 -294h-742l-84 294q-74 -94 -120 -106l-28 8l14 62q-86 -42 -132 -42l-14 22q63 38 63 76q0 4 -1 8 q-128 -64 -188 -64q-70 8 -70 36q154 52 154 95v3q-72 -36 -154 -36h-28q-110 0 -162 70v8h42q76 0 133 17t57 39l-140 -8q-190 34 -190 84l14 8l50 -8q47 -2 81 -2q67 0 81 8q-86 6 -156 11t-76 33l6 20l-20 8v28q224 62 294 146q74 106 174 106q140 0 140 -78 q0 -24 -20 -48q22 -134 112 -134l-70 302zM1288 778q0 39 50 76q17 -37 43 -178q5 -30 5 -62q0 -116 -73 -250q115 101 178 199q51 80 51 155q0 17 -2 34q-14 91 -28 138q-14 48 -25 107l-163 -59q-16 -9 -36 -17v3q-6 70 -31 73q-53 -37 -176 -96q47 -14 47 -44v-252 q0 -6 -11 -13t-39 -21q48 -72 99 -72q23 0 47 15q75 46 120 60q-45 11 -50.5 23.5t-5.5 18.5v162z" />
<glyph unicode="&#x2026;" horiz-adv-x="2048" d="M255.5 123q19.5 -23 13.5 -56t-33.5 -56t-59.5 -23q-33 0 -52.5 23t-13.5 56t33.5 56t60.5 23q32 0 51.5 -23zM938.5 123q19.5 -23 13.5 -56t-33.5 -56t-59.5 -23q-33 0 -52.5 23t-13.5 56t33.5 56t60.5 23q32 0 51.5 -23zM1621.5 123q19.5 -23 13.5 -56t-33.5 -56 t-59.5 -23q-33 0 -52.5 23t-13.5 56t33.5 56t60.5 23q32 0 51.5 -23z" />
<glyph unicode="&#x2030;" horiz-adv-x="1580" d="M1189 1161l-1015 -1158l-57 45l1015 1158zM605 1014q49 -60 34 -145q-15 -84 -85 -144t-155 -60t-134 60t-34 144q15 85 85 145t155 60t134 -60zM457 997q-53 0 -96.5 -37.5t-52.5 -90.5q-10 -53 20.5 -90t83.5 -37q52 0 96 37t54 90q9 53 -22 90.5t-83 37.5zM1041 483.5 q49 -59.5 34 -144.5t-85 -144.5t-155 -59.5t-134 59.5t-34 144.5t85 144.5t155 59.5t134 -59.5zM894 467q-53 0 -96.5 -37.5t-53.5 -90.5q-9 -53 21.5 -90t83.5 -37q52 0 96.5 37t53.5 90q10 53 -21.5 90.5t-83.5 37.5zM1527 483.5q49 -59.5 34 -144.5t-85 -144.5 t-155 -59.5t-134 59.5t-34 144.5t85 144.5t155 59.5t134 -59.5zM1380 467q-53 0 -96.5 -37.5t-53.5 -90.5q-9 -53 21.5 -90t83.5 -37q52 0 96 37t53 90q10 53 -21 90.5t-83 37.5z" />
<glyph unicode="&#x2032;" horiz-adv-x="326" d="M123 881v530h80v-530h-80z" />
<glyph unicode="&#x2033;" horiz-adv-x="486" d="M123 881v530h80v-530h-80zM283 881v530h80v-530h-80z" />
<glyph unicode="&#x2039;" horiz-adv-x="506" d="M130 425l471 425l-20 -113l-346 -312l236 -311l-20 -114z" />
<glyph unicode="&#x203a;" horiz-adv-x="506" d="M55 0l20 114l345 311l-235 312l20 113l321 -425z" />
<glyph unicode="&#x203c;" horiz-adv-x="538" d="M212.5 123q19.5 -23 13.5 -56t-33.5 -56t-59.5 -23q-33 0 -52.5 23t-13.5 56t33.5 56t60.5 23q32 0 51.5 -23zM422 1414l-206 -1170h-80l206 1170h80zM481.5 123q19.5 -23 13.5 -56t-33.5 -56t-59.5 -23q-33 0 -52.5 23t-13.5 56t33.5 56t60.5 23q32 0 51.5 -23z M691 1414l-206 -1170h-80l206 1170h80z" />
<glyph unicode="&#x203e;" horiz-adv-x="794" d="M239 1613h884l-14 -79h-884z" />
<glyph unicode="&#x2044;" horiz-adv-x="327" d="M927 1414l-1415 -1414h-112l1413 1414h114z" />
<glyph unicode="&#x207f;" horiz-adv-x="55" d="M341 1168l-119 -674h-80l153 868h80l-10 -56q127 108 271 108q154 0 233.5 -96.5t55.5 -242.5l-102 -581h-79l101 573q20 111 -46.5 189t-176.5 78q-109 0 -202 -77q-51 -43 -79 -89z" />
<glyph unicode="&#x20a3;" d="M370 414l176 1000h619l-14 -80h-539l-103 -587h539l-14 -80h-539l-45 -253h254l-14 -80h-254l-59 -334h-80l59 334h-143l14 80h143z" />
<glyph unicode="&#x20a4;" d="M417 667q-8 35 -20 70q-70 159 -57 303q1 17 4 34q22 122 120 220q110 108 257 122h34q123 0 206 -81q93 -93 82 -236q-2 -20 -5 -39q-10 -55 -37 -100l-71 25q19 38 27 84q3 13 4 25q9 109 -63 179q-64 62 -157 62q-13 0 -25 -1q-112 -9 -196 -93q-76 -75 -92 -167 q-2 -14 -4 -27q-8 -100 30 -226q33 -75 49 -154h205l-13 -79h-179q4 -53 1 -106h159l-14 -80h-153q-37 -175 -212 -346q118 39 225 39q63 0 123 -14q85 -20 163 -20q71 0 136 16l1 -79q-75 -17 -152 -17q-78 0 -157 19q-84 19 -150 19q-60 0 -106 -15q-98 -34 -192 -77 l-61 91q127 97 161 131q114 112 140 253h-208l14 80h202q2 53 -4 106h-179l13 79h151z" />
<glyph unicode="&#x20a7;" horiz-adv-x="1665" d="M455 1333l-134 -762h216q141 0 261.5 111.5t148.5 270.5q28 158 -53.5 269t-222.5 111h-216zM965 788q-46 -89 -126 -162q-146 -136 -317 -136h-216l-86 -490h-72l249 1414h334q141 -22 224 -135q98 -136 64 -326q-8 -45 -21 -85h74l65 369h80l-65 -369h219q52 28 110 28 q87 0 133 -57q45 -55 33 -126l-1 -4l-74 -28q3 67 -24 101t-81 34q-53 0 -98 -38t-54 -91t22 -91q18 -23 82 -68q102 -61 142 -109q61 -76 43 -181q-19 -108 -107.5 -183.5t-195.5 -75.5t-168.5 75.5t-45.5 165.5l81 20q-13 -77 30 -129.5t117 -52.5q73 0 135 52.5t75 127.5 q13 73 -30 125q-23 28 -99 83q-93 55 -124 94q-50 61 -35 147q10 55 43 101h-142l-139 -788h-80l139 788h-93z" />
<glyph unicode="&#x20ac;" d="M281 782l26 147q35 200 198 342.5t357 142.5q195 0 306 -142l-67 -60q-93 117 -254 117t-295.5 -117t-163.5 -283l-26 -147h563l-30 -80h-547l-19 -106h527l-30 -79h-511l-10 -57q-29 -166 64 -283t254 -117t295 118q84 72 127 163h84q-52 -125 -164 -223 q-162 -143 -357 -143q-194 0 -306.5 142.5t-77.5 342.5l10 57h-143l29 79h128l19 106h-107l29 80h92z" />
<glyph unicode="&#x2105;" horiz-adv-x="1932" d="M802 862l59 -23q-21 -24 -47 -45q-126 -108 -277 -108q-150 0 -238 107t-62 258q27 151 153 257.5t276 106.5q151 0 239 -107q18 -22 31 -45l-67 -23q-8 12 -17 24q-74 88 -198 88t-227.5 -88.5t-125.5 -212.5q-22 -125 50.5 -213t196.5 -88t229 89q13 11 25 23z M1928 1414l-1664 -1414h-112l1662 1414h114zM1622 710q151 0 239 -106.5t61 -258.5q-27 -150 -152 -257t-276 -107q-150 0 -238.5 107t-61.5 257q27 152 152.5 258.5t275.5 106.5zM1382.5 558.5q-103.5 -88.5 -125.5 -213.5q-22 -124 50.5 -212t197.5 -88q124 0 228 88 t126 212q22 125 -51 213.5t-197 88.5q-125 0 -228.5 -88.5z" />
<glyph unicode="&#x2116;" horiz-adv-x="1588" d="M826 283l199 1131h80l-250 -1422l-476 1134l-199 -1126h-80l250 1416zM1489 1413q103 0 163 -72.5t41 -176.5q-18 -102 -103 -175t-188 -73q-102 0 -162.5 73t-42.5 175q19 104 104.5 176.5t187.5 72.5zM1337.5 1295.5q-63.5 -54.5 -77.5 -131.5q-13 -76 31.5 -130.5 t121.5 -54.5t140.5 54.5t76.5 130.5q14 77 -30.5 131.5t-121.5 54.5t-140.5 -54.5zM1611 812l-14 -80h-456l14 80h456z" />
<glyph unicode="&#x2122;" horiz-adv-x="1125" d="M449 1375h-140v-534h-50v534h-161v46h400l236 -362l235 362h58l-8 -12v-568h-50v491l-235 -362l-236 362v-491h-49v534z" />
<glyph unicode="&#x2126;" horiz-adv-x="1293" d="M561 80l-14 -80h-492l14 80h314q-62 47 -110 120q-136 205 -84 495q51 289 258.5 494t450.5 205t378.5 -205t84.5 -494q-52 -290 -259 -495q-75 -73 -153 -120h292l-14 -80h-480l14 80h16l2 8q144 37 274 168q181 182 227 439q45 256 -72.5 438.5t-328.5 182.5 t-392.5 -182.5t-226.5 -438.5q-46 -257 72 -439q83 -131 215 -168l-2 -8h16z" />
<glyph unicode="&#x2190;" horiz-adv-x="1975" d="M263 563h1789l-14 -80h-1789l206 -271l-20 -114l-321 425l471 425l-20 -113z" />
<glyph unicode="&#x2191;" horiz-adv-x="894" d="M745 1459l-316 -1788h-80l316 1788l-316 -253h-114l495 396l355 -396h-113z" />
<glyph unicode="&#x2192;" horiz-adv-x="1975" d="M1704 835l20 113l321 -425l-471 -425l20 114l302 271h-1789l14 80h1789z" />
<glyph unicode="&#x2193;" horiz-adv-x="894" d="M771 67h113l-495 -396l-355 396h114l226 -254l316 1789h80l-316 -1789z" />
<glyph unicode="&#x2194;" horiz-adv-x="1975" d="M249 483l206 -271l-20 -114l-321 425l471 425l-20 -113l-302 -272h1647l-206 272l20 113l321 -425l-471 -425l20 114l302 271h-1647z" />
<glyph unicode="&#x2195;" horiz-adv-x="894" d="M665 1460l-316 -254h-114l495 396l355 -396h-113l-227 254l-291 -1647l317 254h113l-495 -396l-355 396h114l226 -254z" />
<glyph unicode="&#x21a8;" horiz-adv-x="894" d="M665 1460l-316 -254h-114l495 396l355 -396h-113l-227 254l-291 -1647l317 254h113l-495 -396l-355 396h114l226 -254zM805 -382l-14 -80h-850l14 80h850z" />
<glyph unicode="&#x2212;" d="M85 483v80h900v-80h-900z" />
<glyph unicode="&#x221e;" d="M933 707v1q1 11 1 22q0 86 -60.5 147t-147.5 61q-86 0 -151 -59q-63 -58 -86 -172q23 -114 86 -172q65 -59 151 -59q87 0 147.5 61t60.5 147q0 11 -1 23zM996 707q1 -11 1 -23q0 -112 -79.5 -191t-191.5 -79t-195 77q-58 54 -80 123q-11 -26 -57.5 -69t-127.5 -43 q-80 0 -137 56.5t-57 138.5v20q0 82 57 139t137 57q81 0 127.5 -43.5t57.5 -69.5q22 69 80 123q83 77 195 77t191.5 -79t79.5 -191q0 -11 -1 -23zM135 706q-1 -4 -1 -9q0 -54 38.5 -93t93.5 -39t95 37.5t52 69.5q6 16 9 35q-3 19 -9 35q-12 32 -52 69.5t-95 37.5 t-93.5 -38.5t-38.5 -93.5q0 -4 1 -9v-2z" />
<glyph unicode="&#x222b;" horiz-adv-x="497" d="M288 100q-10 -251 -256 -251h-10v79h15q162 0 172 170v1168q20 251 257 251h9v-79h-14q-154 0 -173 -170v-1168z" />
<glyph unicode="&#x2248;" d="M534 896q166 -97 242 -97q13 0 23 3q68 20 96 88q13 34 13 69l80 -13q-3 -42 -20 -86q-41 -98 -138 -130q-22 -7 -49 -7q-93 0 -246 87q-168 96 -242 96q-12 0 -23 -2q-68 -21 -95 -89q-14 -34 -14 -68l-80 13q2 42 19 85q41 98 139 131q22 7 49 7q93 0 246 -87zM534 601 q166 -97 242 -97q13 0 23 3q68 20 96 88q13 34 13 69l80 -13q-3 -42 -20 -86q-41 -98 -138 -130q-22 -7 -49 -7q-93 0 -246 87q-168 96 -242 96q-12 0 -23 -2q-68 -21 -95 -89q-14 -34 -14 -68l-80 13q2 42 19 85q41 98 139 131q22 7 49 7q93 0 246 -87z" />
<glyph unicode="&#x2260;" d="M582 625h-497v80h569l156 172h91l-156 -172h240v-80h-312l-185 -203h493v-80h-565l-156 -172h-90l156 172h-237v80h309z" />
<glyph unicode="&#x2261;" d="M85 483v80h900v-80h-900zM85 783v80h900v-80h-900zM85 183v80h900v-80h-900z" />
<glyph unicode="&#x2264;" d="M258 622l723 -334v-92l-892 426l892 426v-92zM85 0v80h900v-80h-900z" />
<glyph unicode="&#x2265;" d="M89 956v92l892 -426l-892 -426v92l723 334zM85 0v80h900v-80h-900z" />
<glyph unicode="&#x2310;" d="M135 665h800v-80h-720v-339h-80v419z" />
<glyph unicode="&#x25fc;" horiz-adv-x="870" d="M0 870h870v-870h-870v870z" />
<glyph unicode="&#xf001;" horiz-adv-x="680" d="M329 788l-139 -788h-80l139 788h-88l14 80h88l41 235q24 98 105 169q85 67 179 67q50 0 102 -19l-38 -71q-34 16 -69 16q-62 0 -127 -50q-57 -49 -73 -118l-40 -229h177l-14 -80h-177zM724 868l-153 -868h-79l153 868h79zM790.5 1152q19.5 -23 13.5 -55q-6 -34 -33.5 -57 t-59.5 -23q-33 0 -52.5 23t-13.5 57q6 32 33.5 55t60.5 23q32 0 51.5 -23z" />
<glyph unicode="&#xf002;" horiz-adv-x="687" d="M329 788l-139 -788h-80l139 788h-88l14 80h88l41 235q24 98 105 169q85 67 179 67q50 0 102 -19l-38 -71q-34 16 -69 16q-62 0 -127 -50q-57 -49 -73 -118l-40 -229h177l-14 -80h-177zM824 1414l-249 -1414h-80l249 1414h80z" />
</font>
</defs>
</svg>
